<svg width="127" height="127" viewBox="0 0 127 127" fill="none" xmlns="http://www.w3.org/2000/svg">
<g id="blockquote 1" clip-path="url(#clip0_4314_958)">
<g id="Group">
<path id="Vector" d="M29.1042 15.875C21.3853 15.875 13.9825 18.9413 8.52441 24.3994C3.06632 29.8575 0 37.2603 0 44.9792C0 52.6981 3.06632 60.1008 8.52441 65.5589C13.9825 71.017 21.3853 74.0833 29.1042 74.0833C29.9429 74.0833 30.7658 74.0278 31.586 73.9563C30.1432 86.6871 25.8121 98.9202 18.923 109.723C18.6727 110.123 18.5341 110.583 18.5217 111.056C18.5093 111.528 18.6236 111.995 18.8525 112.408C19.0815 112.821 19.4168 113.165 19.8237 113.405C20.2307 113.644 20.6944 113.771 21.1667 113.771H26.4583C26.8172 113.771 27.1723 113.698 27.502 113.557C27.8318 113.415 28.1293 113.208 28.3766 112.948C41.9841 98.634 58.2083 75.2237 58.2083 44.9792C58.1992 37.2631 55.13 29.8656 49.6739 24.4095C44.2178 18.9533 36.8203 15.8841 29.1042 15.875Z" fill="#F5F5F5"/>
<path id="Vector_2" d="M98.071 15.9802C90.3521 15.9802 82.9493 19.0465 77.4912 24.5046C72.0331 29.9627 68.9668 37.3655 68.9668 45.0844C68.9668 52.8033 72.0331 60.2061 77.4912 65.6642C82.9493 71.1222 90.3521 74.1886 98.071 74.1886C98.9097 74.1886 99.7325 74.133 100.553 74.0616C99.11 86.7923 94.7789 99.0255 87.8898 109.828C87.6395 110.228 87.5009 110.689 87.4885 111.161C87.4761 111.633 87.5903 112.1 87.8193 112.513C88.0483 112.926 88.3836 113.27 88.7905 113.51C89.1975 113.75 89.6612 113.876 90.1335 113.876H95.4251C95.784 113.876 96.139 113.803 96.4688 113.662C96.7986 113.52 97.0961 113.313 97.3434 113.053C110.951 98.7393 127.175 75.3289 127.175 45.0844C127.166 37.3683 124.097 29.9708 118.641 24.5147C113.185 19.0586 105.787 15.9893 98.071 15.9802Z" fill="#F5F5F5"/>
</g>
</g>
<defs>
<clipPath id="clip0_4314_958">
<rect width="127" height="127" fill="white"/>
</clipPath>
</defs>
</svg>
