<svg width="400" height="225" viewBox="0 0 400 225" fill="none" xmlns="http://www.w3.org/2000/svg">
<path d="M115.433 210.172C119.328 210.172 122.228 211.603 123.71 213.546L121.178 214.636C119.997 212.969 117.978 212.233 115.394 212.233C111.196 212.233 108.415 213.98 108.415 217.367C108.415 220.754 111.209 222.5 115.394 222.5C117.978 222.499 120.011 221.791 121.218 220.097V220.084L123.736 221.148C122.241 223.117 119.342 224.535 115.328 224.535C109.386 224.535 105.647 221.804 105.647 217.353C105.648 212.903 109.386 210.172 115.433 210.172ZM156.307 224.127H153.342L151.296 220.859H141.13L139.109 224.127H136.158L144.75 210.566H147.741L156.307 224.127ZM181.413 210.566C185.269 210.566 187.827 212.168 187.827 215.003C187.827 217.852 185.269 219.441 181.413 219.441H173.411V224.127H170.696V210.566H181.413ZM205.55 224.127H202.834V210.566H205.55V224.127ZM237.293 212.601H230.065V224.127H227.351V212.601H220.162V210.566H237.293V212.601ZM267.306 224.127H264.341L262.308 220.859H252.129L250.108 224.127H247.157L255.749 210.566H258.739L267.306 224.127ZM284.41 222.067H296.098V224.127H281.695V210.566H284.41V222.067ZM142.362 218.876H150.102L146.232 212.601L142.362 218.876ZM253.361 218.876H261.101L257.231 212.601L253.361 218.876ZM173.398 217.458H181.177C183.512 217.458 185.033 216.762 185.033 215.042V215.03C185.033 213.284 183.512 212.614 181.177 212.614H173.398V217.458ZM172.769 158.393C179.078 158.393 182.463 162.857 187.474 172.073L192.209 179.884C197.508 189.612 201.522 194.785 207.411 194.786C208.946 194.786 210.586 194.444 212.436 193.735L212.58 194.116C208.921 195.481 205.916 196.177 203.411 196.177C196.997 196.177 193.402 191.713 188.392 182.537H173.425C172.244 184.637 171.09 186.659 170.185 188.47C169.725 188.405 168.899 188.326 168.06 188.326C167.22 188.326 166.381 188.391 165.935 188.47C170.185 182.746 175.838 174.305 179.773 168.056C176.258 162.608 173.083 159.785 168.794 159.785C167.299 159.785 165.659 160.14 163.81 160.835L163.705 160.455C167.365 159.089 170.289 158.393 172.769 158.393ZM248.993 162.502C253.243 162.502 257.323 163.054 260.878 164.458C261.324 164.603 261.744 164.839 261.849 165.259L262.373 169.592L261.993 169.697C259.999 166.769 255.473 164.603 248.993 164.603C240.979 164.603 234.591 168.2 234.591 175.526C234.591 182.536 240.441 187.21 249.164 187.21C252.194 187.21 255.224 186.751 257.389 185.819C257.349 179.885 257.14 178.454 256.93 176.498C257.874 176.563 258.884 176.668 259.828 176.668C260.773 176.668 261.783 176.563 262.754 176.498C262.505 178.559 262.308 179.951 262.308 186.961C260.943 187.342 259.487 187.801 257.913 188.142C255.198 188.772 252.234 189.297 249.099 189.297C237.739 189.297 228.387 184.663 228.387 175.552C228.387 167.176 236.466 162.503 248.993 162.502ZM295.822 162.516C306.526 162.516 315.419 167.294 315.419 175.526C315.419 183.757 307.3 189.272 295.127 189.272C284.528 189.272 275.569 184.453 275.569 176.182C275.57 167.911 283.689 162.502 295.822 162.502V162.516ZM14.2061 162.502C19.361 162.502 23.309 163.409 25.8145 164.564L26.5762 168.161H26.6016L26.1826 168.305C24.0183 165.824 20.1222 164.682 14.9541 164.682C8.15932 164.682 5.78516 166.848 5.78516 168.91C5.78611 175.644 28.0322 169.645 28.0322 180.909C28.0322 188.339 18.5085 189.206 13.3271 189.206C7.64738 189.206 4.30231 188.3 1.12793 187.013L0 182.642L0.419922 182.498C2.2303 185.464 7.88405 187.027 13.3145 187.027C18.7449 187.027 23.5586 185.805 23.5586 182.038C23.5583 174.778 1.31162 180.961 1.31152 170.104C1.31152 163.054 10.5463 162.502 14.2061 162.502ZM382.147 163.33C394.281 163.33 400 168.844 400 175.815C400 182.786 394.281 188.484 382.147 188.484C376.782 188.484 374.827 188.339 372.663 188.339C370.499 188.339 367.403 188.405 365.278 188.484C365.423 185.898 365.594 182.589 365.594 175.749L365.58 175.736C365.58 167.295 365.371 165.929 365.266 163.356C367.325 163.395 370.355 163.5 372.454 163.5C374.959 163.499 377.124 163.33 382.147 163.33ZM73.6543 163.317C73.4051 165.693 73.1953 167.295 73.1953 175.736C73.1953 182.575 73.4444 186.068 73.6543 188.47C72.6444 188.405 71.5295 188.327 70.5195 188.327C69.5095 188.327 68.4333 188.391 67.4102 188.47C67.5545 186.199 67.8308 182.891 67.8701 176.708H46.2266C46.2266 182.878 46.502 186.199 46.7119 188.47C45.7019 188.405 44.5862 188.327 43.5762 188.327C42.5663 188.327 41.4908 188.391 40.4678 188.47C40.6383 186.068 40.9268 182.575 40.9268 175.736C40.9268 167.295 40.6776 165.693 40.4678 163.317C41.4777 163.383 42.5532 163.46 43.5762 163.46C44.5993 163.46 45.7019 163.396 46.7119 163.317C46.4627 165.549 46.2528 167.15 46.2266 174.279H67.8701C67.8308 167.164 67.62 165.562 67.4102 163.317C68.4202 163.383 69.4964 163.46 70.5195 163.46C71.5426 163.46 72.6444 163.396 73.6543 163.317ZM143.098 163.317C150.273 163.317 154.745 165.063 154.745 169.697C154.745 172.349 153.421 174.029 149.866 174.725C154.405 175.08 157.08 177.062 157.08 181.08C157.08 187.25 150.732 188.47 144.317 188.47C139.268 188.47 135.739 188.327 133.653 188.327C131.594 188.327 129.115 188.391 127.068 188.47C127.239 186.068 127.527 182.575 127.527 175.736C127.527 167.295 127.278 165.693 127.068 163.317C129.128 163.383 131.594 163.46 133.653 163.46C135.988 163.46 137.799 163.317 143.098 163.317ZM334.479 163.317C334.23 165.693 333.994 167.295 333.994 175.736C333.994 180.685 334.139 183.836 334.23 186.068H349.053C351.217 186.068 352.293 185.963 354.208 183.902L354.628 184.073L352.542 188.05C352.371 188.405 352.188 188.47 351.702 188.47C334.428 188.47 334.623 188.327 333.786 188.327C332.044 188.327 329.99 188.392 328.249 188.47C328.42 186.068 328.708 182.575 328.708 175.736C328.708 167.295 328.459 165.693 328.249 163.317C329.259 163.383 330.335 163.46 331.345 163.46C332.355 163.46 333.47 163.396 334.479 163.317ZM112.94 163.303C113.294 163.303 113.426 163.408 113.505 163.762H113.518L114.213 166.94L113.833 167.084C113.138 165.969 110.934 165.719 109.019 165.719H93.2256C93.1862 168.542 93.0156 171.443 93.0156 174.265H102.84C104.414 174.265 108.309 174.16 109.608 173.845C109.543 174.515 109.543 174.962 109.543 175.487C109.543 176.012 109.543 176.471 109.608 177.127C108.323 176.747 104.414 176.668 102.84 176.668H93.0156C93.0156 179.806 93.1862 182.918 93.2256 186.055H107.759C111.274 186.055 113.203 185.805 115.053 183.823L115.394 184.033L113.544 187.867C113.268 188.418 113.163 188.458 112.494 188.458C104.44 188.458 100.505 188.313 97.1865 188.313C94.0909 188.313 90.2082 188.379 87.0732 188.458C87.2438 186.055 87.5586 182.563 87.5586 175.723C87.5586 167.282 87.2831 165.679 87.0732 163.303C90.2476 163.369 94.2221 163.448 97.3965 163.448C100.571 163.448 104.375 163.303 112.94 163.303ZM295.402 164.564C287.978 164.564 281.945 168.331 281.944 175.828V175.841C281.944 182.957 287.558 187.21 295.533 187.21C302.997 187.21 309.031 183.442 309.031 175.972C309.031 168.502 303.351 164.564 295.402 164.564ZM132.853 186.068H144.317C148.121 186.068 151.112 184.887 151.112 181.08C151.112 176.892 147.557 176.13 143.098 176.13H132.787L132.853 186.068ZM382.147 165.785C378.842 165.785 374.264 165.85 370.958 165.995C370.892 168.187 370.854 170.117 370.854 175.722C370.854 180.501 370.918 183.324 371.023 185.766C374.303 185.871 378.829 185.976 382.147 185.976C390.318 185.976 393.848 181.886 394.061 176.331L394.071 175.801C394.071 170.077 390.582 165.785 382.147 165.785ZM181.048 170.172C179.135 173.136 176.936 176.688 174.854 180.173H186.948L183.63 174.699C182.725 173.059 181.861 171.563 181.048 170.172ZM132.787 173.885H143.11C147.216 173.885 149.039 172.598 149.039 169.697C149.039 166.979 147.255 165.758 143.11 165.758H132.853L132.787 173.885ZM228.688 0.535645C234.303 3.26631 239.471 6.77149 244.049 10.9331L233.568 40.7349C238.868 29.1294 243.065 19.8606 246.161 12.9419C249.034 15.7908 251.644 18.9026 253.953 22.2241L240.127 45.9341L255.475 24.521C257.337 27.4749 258.977 30.5873 260.367 33.8169C253.782 43.0855 248.85 50.1877 245.531 55.1108C250.765 49.308 256.091 43.1508 261.482 36.6128C262.558 39.4617 263.424 42.4028 264.093 45.4224C264.119 46.1837 264.145 46.9718 264.158 47.7856C251.985 60.4283 245.886 66.7563 245.886 66.7563C254.084 60.1528 260.485 54.914 265.089 51.0542C265.456 53.8637 265.653 56.7388 265.653 59.6401C265.653 60.0995 265.654 60.5591 265.641 61.0054L241.793 76.6157L265.457 64.8394C265.339 66.4278 265.155 68.0032 264.919 69.5522C264.342 71.5609 263.633 73.5306 262.807 75.4604L234.001 88.3257L260.734 79.688C257.547 85.4775 253.165 90.702 247.683 94.9556C240.337 98.986 232.44 99.7481 225.173 101.035L225.081 101.232L224.989 101.428L224.911 101.599L224.714 101.993L224.688 102.033L224.648 102.111L224.412 102.557V102.583L224.373 102.636L224.124 103.096L224.098 103.148L223.822 103.621V103.647L223.533 104.12L223.494 104.172L223.468 104.211L223.192 104.671L223.166 104.698L223.101 104.802C222.93 105.065 222.773 105.328 222.603 105.59L222.484 105.748L222.458 105.787L222.195 106.181L222.064 106.365L221.802 106.746L221.776 106.785L221.736 106.85L221.526 107.139L221.408 107.31V107.336H221.383L221.106 107.717L221.028 107.835L220.963 107.914L220.674 108.308L220.635 108.347L220.28 108.82L220.241 108.859H220.229L220.084 109.069L219.927 109.266L219.835 109.372L219.769 109.463L219.611 109.647L219.454 109.844L219.415 109.896L219.297 110.041L219.14 110.238L218.995 110.421L218.838 110.631L218.681 110.815L218.588 110.933L218.522 111.012L218.195 111.393L218.143 111.446L218.024 111.577L217.854 111.76L217.696 111.945L217.525 112.141L217.355 112.338L217.25 112.457L216.856 112.903L216.805 112.968L216.687 113.1L216.346 113.48C219.1 102.977 213.617 93.1178 204.566 84.7026L204.461 84.6108L204.343 84.5317L204.106 84.3481L203.989 84.2563L203.517 83.8892L203.398 83.7964L203.044 83.521L202.927 83.4292L202.454 83.062L202.349 82.9692L202.231 82.8774L201.759 82.5103L201.654 82.4185L201.549 82.3267L201.431 82.2349L201.326 82.1431L201.208 82.0503L201.103 81.9458L200.998 81.854L200.88 81.7622L200.775 81.6704L200.67 81.5649L200.565 81.4731L200.46 81.3813L200.355 81.2759L200.25 81.1841L200.04 80.9741L199.936 80.8823L199.831 80.7769L199.726 80.6851L199.306 80.2651L199.201 80.1733L198.571 79.5435L198.467 79.438L198.361 79.3335L198.257 79.228L197.417 78.3882L197.312 78.2827C195.752 75.8934 194.859 73.2416 194.597 70.5503V70.3794H194.584V70.353L194.558 70.0776V69.7622L194.544 69.5522V67.8716H194.558V67.7407L194.584 67.5571L194.61 67.2417L194.649 66.9263C194.702 66.4933 194.767 66.0864 194.846 65.6665C194.885 65.4433 194.925 65.2457 194.978 65.0356L195.056 64.7339C195.108 64.537 195.16 64.3399 195.213 64.1431V64.1167L195.305 63.8413V63.8022C195.383 63.6054 195.449 63.4083 195.515 63.2114V63.1714L195.62 62.9097L195.725 62.6069C195.803 62.397 195.882 62.213 195.961 62.0161C196.131 61.6224 196.316 61.2288 196.525 60.8481C196.683 60.5594 196.84 60.2839 197.011 60.0083C197.116 59.8245 197.233 59.653 197.338 59.4692V59.4438C197.469 59.26 197.601 59.0886 197.719 58.9048V58.813L197.758 58.7603L197.771 58.7349V58.6948L197.784 58.6685V58.6421L197.863 58.5376V58.4985L197.915 58.4194C198.086 58.1963 198.257 57.9864 198.414 57.7896C198.506 57.6978 198.584 57.5923 198.676 57.5005C198.715 57.4611 198.755 57.4212 198.794 57.3687C200.079 55.9771 201.523 54.9142 203.031 54.3628H202.992C202.887 54.3628 202.769 54.3887 202.664 54.4019H202.52L202.362 54.4282H202.297L202.073 54.481H201.981C193.469 56.6344 188.877 73.0582 192.996 78.8872L193.01 78.9126C194.728 81.3282 198.677 84.6366 200.985 86.5796C201.628 87.1177 202.257 87.6564 202.86 88.2339L203.176 88.5493H203.188L203.254 88.6284L203.333 88.7065L203.608 88.9829L203.805 89.1792H203.818L203.884 89.2583L203.963 89.3374L204.028 89.4155L204.106 89.4946L204.186 89.5737L204.265 89.6519L204.343 89.731L204.422 89.8101L204.448 89.8354L204.5 89.8882L204.579 89.9673L204.959 90.3745L205.038 90.4526L205.064 90.479L205.104 90.5317L205.261 90.689L205.327 90.7681L205.405 90.8472L205.458 90.9126H205.471L205.55 91.0044L205.615 91.0835L205.654 91.1226L205.694 91.1616L205.772 91.2407L205.838 91.3198L205.904 91.4116L205.97 91.4897L206.035 91.5688L206.101 91.6606L206.166 91.7397L206.311 91.9106L206.376 91.9888H206.39L206.441 92.0679L206.507 92.1597L206.573 92.2388L206.639 92.3306L206.704 92.4087L206.743 92.4614L206.77 92.4878L206.835 92.5796L206.9 92.6587L207.177 93.0132L207.242 93.0913L207.294 93.1577L207.32 93.1841L207.386 93.2622C209.314 95.8091 210.954 98.5929 212.239 101.534C214.482 108.229 213.407 113.402 210.665 117.866L210.64 117.931C210.141 118.719 209.603 119.493 209.025 120.242L208.96 120.321L208.908 120.413L208.842 120.491L208.79 120.57L208.725 120.662L208.658 120.741L208.593 120.819L208.554 120.885H208.54L208.475 120.977L208.423 121.069L208.317 121.2L208.291 121.24L208.226 121.318L208.095 121.476L208.068 121.515L208.029 121.554L207.963 121.646L207.832 121.804L207.806 121.831L207.767 121.882L207.701 121.974L207.636 122.053L207.569 122.132V122.159L207.504 122.224L207.438 122.316L207.373 122.395L207.308 122.473L207.255 122.552L207.189 122.631L207.124 122.709L207.059 122.789L206.992 122.88L206.927 122.959L206.861 123.038L206.809 123.104L206.743 123.196L206.678 123.274L206.612 123.353L206.56 123.406V123.432L206.481 123.51L206.415 123.589L206.35 123.668L206.219 123.826L206.153 123.905L206.088 123.983L206.062 124.023L206.021 124.062L205.956 124.141L205.891 124.219L205.825 124.298V124.325L205.76 124.377L205.694 124.456L205.629 124.535L205.562 124.614V124.64L205.497 124.706L205.432 124.784L205.301 124.942L205.235 125.02L205.169 125.099L205.104 125.178L205.038 125.256L204.907 125.415C200.749 130.115 195.948 134.224 190.636 137.637C194.361 134.316 196.643 129.799 197.233 125.02L197.246 124.889V124.758L197.272 124.679L197.299 124.351L197.325 124.088V124.009L197.352 123.681C197.352 123.445 197.378 123.235 197.378 123.012V122.342C197.378 122.014 197.378 121.712 197.352 121.397V121.134L197.325 121.003C197.286 120.544 197.233 120.084 197.181 119.637L197.128 119.284V119.231C197.062 118.916 197.01 118.601 196.944 118.286L196.866 117.931C196.788 117.603 196.695 117.261 196.604 116.933C188.182 96.6104 168.52 104.408 151.756 95.2183C146.273 90.9646 141.892 85.7525 138.704 79.9497L165.437 88.5884L136.631 75.7231C136.119 74.5285 135.647 73.32 135.228 72.0728C134.808 69.841 134.506 67.5698 134.322 65.2593L157.646 76.8647L134.126 61.478C134.126 60.9531 134.1 60.4282 134.1 59.8901C134.1 57.0675 134.283 54.2703 134.624 51.5396C139.202 55.3731 145.499 60.5334 153.526 66.9927C153.526 66.9927 147.44 60.6646 135.254 48.022V47.5093C135.936 43.9253 136.907 40.4595 138.14 37.1118C143.452 43.5317 148.699 49.6104 153.867 55.3345C150.588 50.4638 145.721 43.4661 139.241 34.3286C140.619 31.0727 142.246 27.948 144.108 24.981L159.285 46.144L145.616 22.6831C147.912 19.3354 150.51 16.2107 153.369 13.3618C156.452 20.2543 160.623 29.4447 165.856 40.9321L155.455 11.354C160.007 7.17915 165.162 3.64755 170.763 0.877441C174.16 21.6597 177.269 36.9808 180.089 46.814C172.35 52.2623 168.034 61.3605 168.716 70.813C169.293 78.8082 173.399 86.0551 179.774 90.6763C176.495 82.3134 176.442 71.7448 184.614 57.0278C183.394 57.2511 181.558 58.0121 179.092 59.3511C179.564 57.9068 183.093 54.8345 189.651 50.1479C187.658 50.2924 185.638 50.4771 183.604 50.7134C194.833 42.6919 204.566 42.2321 212.816 49.3345C216.647 49.3476 217.775 52.9577 216.201 60.1519C209.144 50.2667 194.531 76.4576 218.942 75.5649C223.14 75.6568 226.774 74.1997 229.83 71.1802L221.343 79.8188L221.435 79.8979V79.9243C221.605 80.108 221.763 80.2651 221.92 80.4487L221.946 80.4751C222.091 80.6326 222.222 80.7775 222.366 80.9351L222.393 80.9614L222.445 81.0132C222.576 81.1576 222.694 81.302 222.812 81.4595L222.839 81.4858L222.904 81.5649L223.192 81.9321L223.311 82.0903L223.573 82.4448L223.678 82.5894L223.73 82.6675L223.901 82.9038L223.953 82.9829L224.045 83.1274L224.098 83.2192L224.269 83.4819L224.399 83.6919L224.452 83.771L224.544 83.9282L224.596 84.0073L224.728 84.23L224.911 84.5454L225.003 84.7153L225.042 84.7944L225.121 84.9517L225.449 84.7681C228.466 80.7114 230.342 75.8276 230.709 70.6157C231.404 61.1632 227.075 52.065 219.336 46.6167C222.169 36.7572 225.278 21.3968 228.688 0.535645ZM193.98 79.5562H193.993V79.5825L193.952 79.5376L193.98 79.5562ZM193.952 79.5376L193.94 79.5298L193.915 79.5034L193.862 79.4771V79.438L193.952 79.5376ZM199.817 55.3081L199.856 55.2817H199.817V55.3081ZM199.673 47.7593C200.066 49.4134 200.841 50.5292 201.995 51.0806C203.149 51.0412 204.172 50.8051 205.077 50.3589C204.356 49.847 203.517 49.7283 202.533 49.9907C201.405 49.4131 200.46 48.6651 199.673 47.7593Z" fill="white"/>
</svg>
