<svg xmlns="http://www.w3.org/2000/svg" fill="none" viewBox="0 0 465 170">
  <rect width="462" height="166" x="1.5" y="1.536" stroke="url(#a)" stroke-width="3" rx="18.5"/>
  <path fill="url(#b)" d="M63.921 123.036v-.864l1.404-.216c2.808-.432 5.184-1.836 5.184-6.048V54.564c0-4.32-2.376-5.724-5.184-6.048l-1.404-.216v-.864H89.41c17.172 0 29.268 14.256 29.268 37.584 0 23.328-12.096 38.016-29.268 38.016H63.921ZM79.15 115.8c0 4.752 1.62 5.94 5.4 5.94h4.536c12.528 0 19.872-13.392 19.872-34.344 0-21.708-6.804-38.664-21.492-38.664H79.15V115.8Zm63.709 8.532c-10.26 0-19.548-10.476-19.548-26.352s9.288-26.784 19.548-26.784c10.26 0 19.656 10.368 19.656 26.352s-9.396 26.784-19.656 26.784Zm-10.8-28.512c0 14.58 4.32 27.54 11.556 27.54 6.372 0 10.152-9.828 10.152-23.544 0-14.688-4.428-27.54-11.664-27.54-6.264 0-10.044 9.828-10.044 23.544Zm79.993 27.216v-.756l1.512-.216c2.592-.432 3.564-1.512 3.564-5.832V86.964c0-7.668-2.7-11.988-7.56-11.988-3.564 0-6.588 2.484-8.64 5.724.324 1.62.432 3.348.432 4.968v30.564c0 3.78.54 5.292 3.672 5.832l1.296.216v.756H188.4v-.756l1.404-.216c2.808-.432 3.564-1.836 3.564-5.832V86.964c0-7.668-2.808-11.988-7.344-11.988-3.348 0-6.264 2.268-8.208 5.184v36.072c0 3.996.756 5.292 3.564 5.832l1.296.216v.756H164.64v-.756l1.296-.216c2.916-.54 3.888-1.836 3.888-5.832V82.536c0-3.672-.648-5.832-5.184-6.156v-.648l12.528-4.428h.432v8.1c2.484-4.428 6.912-8.424 12.744-8.424 5.94 0 9.072 3.996 10.368 8.964 2.268-4.428 6.804-8.964 13.176-8.964 8.532 0 11.124 7.776 11.124 14.58v30.672c0 3.996.864 5.292 3.78 5.832l1.512.216v.756h-18.252Zm20.404 0v-.756l1.296-.216c2.916-.54 3.888-1.728 3.888-5.832V82.644c0-3.996-1.08-5.94-5.184-6.264v-.648l12.528-4.428h.54v44.928c0 3.888.864 5.292 3.78 5.832l1.404.216v.756h-18.252Zm3.888-62.532c0-2.7 2.268-4.968 4.968-4.968 2.592 0 4.968 2.268 4.968 4.968 0 2.592-2.376 4.86-4.968 4.86-2.7 0-4.968-2.268-4.968-4.86Zm41.735 62.532v-.756l1.404-.216c2.376-.432 3.564-1.296 3.564-5.832v-28.62c0-8.1-2.592-12.42-7.668-12.42-3.672 0-7.02 2.268-9.18 5.508v35.532c0 3.996.756 5.292 3.672 5.832l1.296.216v.756h-18.144v-.756l1.296-.216c2.916-.54 3.888-1.728 3.888-5.832V82.536c0-3.78-.972-5.832-5.184-6.156v-.648l12.528-4.428h.432v8.64c2.376-4.32 7.128-8.964 13.608-8.964 8.1 0 11.34 7.236 11.34 14.148v31.104c0 3.888.972 5.292 3.888 5.832l1.404.216v.756h-18.144Zm20.295 0v-.756l1.296-.216c2.916-.54 3.888-1.728 3.888-5.832V82.644c0-3.996-1.08-5.94-5.184-6.264v-.648l12.528-4.428h.54v44.928c0 3.888.864 5.292 3.78 5.832l1.404.216v.756h-18.252Zm3.888-62.532c0-2.7 2.268-4.968 4.968-4.968 2.592 0 4.968 2.268 4.968 4.968 0 2.592-2.376 4.86-4.968 4.86-2.7 0-4.968-2.268-4.968-4.86Zm35.926 63.828c-10.26 0-19.548-10.476-19.548-26.352s9.288-26.784 19.548-26.784c10.26 0 19.656 10.368 19.656 26.352s-9.396 26.784-19.656 26.784Zm-10.8-28.512c0 14.58 4.32 27.54 11.556 27.54 6.372 0 10.152-9.828 10.152-23.544 0-14.688-4.428-27.54-11.664-27.54-6.264 0-10.044 9.828-10.044 23.544Zm57.636 27.216v-.756l1.404-.216c2.376-.432 3.564-1.296 3.564-5.832v-28.62c0-8.1-2.592-12.42-7.668-12.42-3.672 0-7.02 2.268-9.18 5.508v35.532c0 3.996.756 5.292 3.672 5.832l1.296.216v.756h-18.144v-.756l1.296-.216c2.916-.54 3.888-1.728 3.888-5.832V82.536c0-3.78-.972-5.832-5.184-6.156v-.648l12.528-4.428h.432v8.64c2.376-4.32 7.128-8.964 13.608-8.964 8.1 0 11.34 7.236 11.34 14.148v31.104c0 3.888.972 5.292 3.888 5.832l1.404.216v.756h-18.144Z"/>
  <defs>
    <linearGradient id="a" x1="22.453" x2="442.013" y1="98.15" y2="-57.603" gradientUnits="userSpaceOnUse">
      <stop stop-color="#EACEA9"/>
      <stop offset=".407" stop-color="#D7A25B"/>
      <stop offset=".639" stop-color="#FDEED5"/>
      <stop offset="1" stop-color="#CDA36C"/>
    </linearGradient>
    <linearGradient id="b" x1="78.514" x2="390.334" y1="95.508" y2="-15.17" gradientUnits="userSpaceOnUse">
      <stop stop-color="#EACEA9"/>
      <stop offset=".407" stop-color="#D7A25B"/>
      <stop offset=".639" stop-color="#FDEED5"/>
      <stop offset="1" stop-color="#CDA36C"/>
    </linearGradient>
  </defs>
</svg>
