<svg width="192" height="108" viewBox="0 0 192 108" fill="none" xmlns="http://www.w3.org/2000/svg">
<path id="Union" fill-rule="evenodd" clip-rule="evenodd" d="M110.74 33.6835C110.564 36.1886 109.664 38.536 108.215 40.4859L108.058 40.5742L108.02 40.4985L108.001 40.4606L107.957 40.3786L107.869 40.2271L107.806 40.1199L107.781 40.082L107.737 40.0063L107.712 39.9684L107.649 39.8675L107.567 39.7413L107.542 39.6971L107.498 39.6277L107.472 39.5898L107.391 39.4762L107.365 39.4384L107.315 39.369L107.189 39.1986L107.132 39.1229L106.994 38.9462L106.962 38.9083L106.95 38.8957C106.893 38.82 106.837 38.7506 106.774 38.6812L106.748 38.6559L106.736 38.6433C106.667 38.5676 106.604 38.4982 106.534 38.4224L106.522 38.4098C106.47 38.3498 106.419 38.2957 106.366 38.2394C106.341 38.2128 106.315 38.1858 106.289 38.1574V38.1511V38.1448L106.245 38.1069L110.318 33.9549C108.851 35.4062 107.107 36.1066 105.092 36.0624C93.375 36.4915 100.389 23.9028 103.776 28.6543C104.532 25.1964 103.991 23.4611 102.152 23.4548C98.1917 20.041 93.5198 20.2619 88.1301 24.1174C89.1061 24.0038 90.0757 23.9154 91.0327 23.846C87.8846 26.0987 86.1909 27.5753 85.9642 28.2694C87.1479 27.6258 88.0294 27.2598 88.615 27.1525C84.6923 34.2262 84.7175 39.3059 86.2916 43.3254C83.2316 41.1042 81.2608 37.621 80.9838 33.7782C80.6564 29.2349 82.7279 24.8619 86.4427 22.2432C85.089 17.5169 83.5968 10.153 81.966 0.164064C79.2775 1.4955 76.8031 3.19293 74.6182 5.19955L79.6112 19.4163C77.099 13.8949 75.0967 9.47783 73.6171 6.16501C72.2445 7.53431 70.9978 9.03612 69.896 10.6452L76.4568 21.9214L69.1719 11.7495C68.2778 13.1756 67.4971 14.6774 66.836 16.2423C69.9464 20.6342 72.2823 23.9975 73.8564 26.3385C71.3756 23.5873 68.8571 20.6657 66.3071 17.58C65.7152 19.1891 65.2493 20.855 64.9219 22.5777V22.8238C70.7712 28.9004 73.6927 31.9419 73.6927 31.9419C69.8393 28.8373 66.8171 26.3575 64.6197 24.5149C64.456 25.8274 64.3678 27.1715 64.3678 28.5281C64.3678 28.6583 64.371 28.7869 64.3742 28.9146C64.3773 29.0408 64.3804 29.1662 64.3804 29.2917L75.6697 36.6871L64.4749 31.109C64.563 32.2196 64.7078 33.3112 64.9093 34.3839C65.1108 34.9834 65.3375 35.5639 65.583 36.1382L79.4097 42.3221L66.5778 38.17C68.1078 40.9591 70.2108 43.4642 72.8427 45.5087C75.8053 47.135 78.9566 47.6544 81.9577 48.1491C87.1078 48.998 91.8158 49.774 94.3698 55.9457C94.4139 56.1035 94.4579 56.2675 94.4957 56.4253L94.5335 56.5956C94.5492 56.6714 94.5634 56.7471 94.5776 56.8228C94.5917 56.8985 94.6059 56.9743 94.6216 57.05V57.0752L94.6468 57.2456C94.672 57.4601 94.6972 57.681 94.7161 57.9018L94.7287 57.9649V58.0533V58.0911C94.7413 58.2426 94.7413 58.3877 94.7413 58.5455V58.8673C94.7413 58.9202 94.7382 58.9715 94.7351 59.0236C94.7319 59.0771 94.7287 59.1315 94.7287 59.1891L94.7161 59.3469V59.3847L94.7035 59.5109L94.6909 59.6687L94.6783 59.7065V59.7696L94.672 59.8327C94.3887 62.1296 93.2931 64.3003 91.505 65.8968C94.055 64.2561 96.3594 62.2811 98.3554 60.022L98.3868 59.9842L98.4183 59.9463L98.4498 59.9085L98.4813 59.8706L98.5128 59.8327L98.5442 59.7949L98.5757 59.757L98.6072 59.7192L98.6387 59.6813L98.6702 59.6497V59.6371L98.7017 59.5993L98.7331 59.5614L98.7646 59.5235L98.7961 59.4983V59.4857L98.8276 59.4478L98.8591 59.41L98.8905 59.3721L98.9094 59.3532L98.922 59.3342L98.9535 59.2964L98.985 59.2585L99.048 59.1828L99.0794 59.1449L99.1109 59.1071L99.1487 59.0692V59.0566L99.1739 59.0314L99.2054 58.9935L99.2368 58.9556L99.2683 58.9115L99.2935 58.8799L99.325 58.842L99.3565 58.8042L99.388 58.76L99.4194 58.7222L99.4509 58.6843L99.4824 58.6464L99.5076 58.6086L99.5391 58.5707L99.5705 58.5329L99.602 58.4887L99.6335 58.4571V58.4445L99.665 58.4066L99.6965 58.3688L99.728 58.3246L99.7468 58.2994L99.7594 58.2868L99.7909 58.2489L99.8224 58.211L99.8539 58.1669L99.8728 58.1479L99.8854 58.129L99.9168 58.0911L99.9483 58.0533L99.9798 58.0154L99.9924 57.9965L100.043 57.9334L100.068 57.8892L100.099 57.845H100.106L100.125 57.8135L100.156 57.7756L100.188 57.7378L100.219 57.6936L100.244 57.6557L100.276 57.6179L100.301 57.5737L100.332 57.5359C100.609 57.1762 100.868 56.8039 101.107 56.4253L101.119 56.3937C102.435 54.2483 102.952 51.7621 101.875 48.5439C101.258 47.1304 100.471 45.7927 99.5454 44.5685L99.5139 44.5307L99.5013 44.518L99.4761 44.4865L99.4446 44.4486L99.3124 44.2782L99.2809 44.2404L99.2494 44.1962L99.2368 44.1836L99.218 44.1584L99.1865 44.1205L99.155 44.0763L99.1235 44.0385L99.092 43.9943L99.0668 43.9564H99.0605L99.0291 43.9186L98.9598 43.8365L98.9283 43.7987L98.8968 43.7545L98.8654 43.7166L98.8339 43.6788L98.8024 43.6346L98.7709 43.5968L98.7331 43.5589L98.7142 43.54L98.6954 43.521L98.6639 43.4832L98.6261 43.439H98.6198L98.5946 43.4074L98.5568 43.3696L98.5254 43.3317L98.4876 43.2939L98.4498 43.256L98.4309 43.2308L98.4183 43.2181L98.3805 43.1803L98.198 42.9847L98.1602 42.9468L98.135 42.9216L98.1224 42.9089L98.0846 42.8711L98.0468 42.8332L98.0091 42.7954L97.9713 42.7575L97.9335 42.7196L97.902 42.6818L97.8642 42.6439L97.8328 42.6061H97.8265L97.7887 42.5682L97.7509 42.5303L97.732 42.5114L97.5998 42.3789L97.562 42.341L97.5305 42.3032H97.5242L97.4865 42.2653L97.4487 42.2275L97.4109 42.1896L97.3731 42.1517C97.0835 41.8741 96.7813 41.6154 96.4728 41.3567L96.424 41.3155C95.3098 40.3766 93.4574 38.8157 92.6446 37.6715L92.6383 37.6589C90.6613 34.8572 92.865 26.9632 96.9513 25.9284H96.9702H96.9765H96.9828H96.9891H96.9954L97.1024 25.9031H97.1087H97.115H97.1213H97.1276H97.1339L97.2094 25.8905H97.2157H97.2409H97.2598H97.2661H97.2724H97.2787C97.2945 25.8885 97.3109 25.8859 97.3276 25.8833C97.364 25.8775 97.4015 25.8716 97.4361 25.8716H97.455C96.7309 26.1366 96.0383 26.6477 95.4213 27.3166C95.4024 27.3418 95.3835 27.3608 95.3646 27.3797C95.3426 27.4018 95.3221 27.4255 95.3016 27.4491C95.2812 27.4728 95.2607 27.4964 95.2387 27.5185C95.1631 27.6132 95.0813 27.7141 94.9994 27.8214L94.9742 27.8593V27.8782L94.9365 27.9287V27.9413L94.9302 27.9539V27.9665V27.9728L94.9239 27.9855L94.905 28.0107V28.017V28.0233V28.0296V28.0359V28.0486V28.0549C94.8651 28.117 94.8221 28.1761 94.7782 28.2364C94.7597 28.2618 94.741 28.2874 94.7224 28.3136V28.3262C94.6972 28.3704 94.6704 28.413 94.6437 28.4556C94.6169 28.4982 94.5902 28.5408 94.565 28.5849C94.4831 28.7174 94.4076 28.85 94.332 28.9888C94.2313 29.1718 94.1431 29.3611 94.0613 29.5504C94.0487 29.582 94.0361 29.6129 94.0235 29.6437C93.9983 29.7054 93.9731 29.7671 93.9479 29.8343L93.8976 29.9795L93.885 30.011L93.8472 30.1057V30.1246C93.8157 30.2193 93.7842 30.3139 93.7465 30.4086V30.4275L93.7024 30.56V30.5726L93.6268 30.8566L93.589 31.0017C93.5639 31.1027 93.545 31.1973 93.5261 31.3046C93.4883 31.5065 93.4568 31.7021 93.4316 31.9104L93.4127 32.0618L93.4002 32.2133L93.3876 32.3016V32.3647H93.3813V32.5098V32.5919V32.6865V32.9705V32.9831V33.0778V33.1219V33.1724L93.3876 33.2734V33.368V33.4248L93.4002 33.5573V33.5699H93.4065V33.652C93.5324 34.9456 93.9605 36.2202 94.7098 37.3686L94.7602 37.4191L94.8105 37.4696L94.8609 37.5201L94.9113 37.5706L94.9616 37.621L95.012 37.6715L95.0624 37.722L95.1127 37.7725L95.1631 37.823L95.2135 37.8735L95.2639 37.9239L95.3142 37.9744L95.3646 38.0249L95.415 38.0754L95.4653 38.1259L95.5157 38.1763L95.5661 38.2268L95.6165 38.2773L95.6668 38.3215L95.7172 38.372L95.7676 38.4224L95.8179 38.4729L95.8683 38.5234L95.9187 38.5676L95.969 38.6181L96.0194 38.6622L96.0698 38.7127L96.1202 38.7632L96.1705 38.8074L96.2209 38.8578L96.2713 38.902L96.3216 38.9462L96.372 38.9967L96.4224 39.0408L96.479 39.085L96.5294 39.1292L96.5798 39.1797L96.6365 39.2238L96.6868 39.268L96.7435 39.3122L96.7939 39.3563L96.8442 39.4005L96.9009 39.4447L96.9576 39.4889L97.0142 39.533L97.0709 39.5772L97.1276 39.6214L97.1779 39.6655L97.2346 39.7097L97.2913 39.7539L97.3479 39.798L97.4046 39.8422L97.4613 39.8864L97.518 39.9306L97.5746 39.9747L97.6313 40.0189L97.6879 40.0631L97.7446 40.1072L97.8013 40.1514L97.8579 40.1956L97.9146 40.2398L97.9713 40.2839L98.0279 40.3281L98.0846 40.3723L98.1413 40.4101L98.1917 40.4543C102.536 44.4991 105.168 49.238 103.846 54.2861L104.009 54.1031L104.066 54.04L104.091 54.0085L104.28 53.7939L104.331 53.7371L104.412 53.6425L104.494 53.5478L104.57 53.4595L104.652 53.3712L104.708 53.3081L104.734 53.2828L104.891 53.0998L104.922 53.062L104.966 53.0052L105.042 52.9168L105.118 52.8159L105.187 52.7275L105.262 52.6329L105.319 52.5635L105.338 52.5382L105.414 52.4436L105.489 52.3552L105.521 52.3111L105.565 52.2606L105.64 52.1659L105.709 52.065H105.716L105.735 52.046L105.905 51.8189L105.924 51.7999L106.062 51.6106L106.094 51.5728L106.131 51.516L106.264 51.333H106.276V51.3204L106.333 51.2383L106.434 51.0995L106.452 51.068L106.465 51.049L106.591 50.866L106.622 50.8219L106.654 50.7777L106.78 50.5884L106.792 50.5695L106.849 50.4937C106.89 50.4306 106.929 50.3675 106.969 50.3044C107.008 50.2413 107.047 50.1782 107.088 50.1151L107.12 50.0646L107.132 50.052L107.265 49.8312L107.277 49.8122L107.296 49.787L107.435 49.5598V49.5472L107.567 49.32L107.579 49.2948L107.699 49.074L107.718 49.0487V49.0361L107.831 48.8215L107.85 48.7837L107.863 48.7648L107.957 48.5755L107.995 48.4934L108.039 48.3988L108.083 48.3041C108.633 48.2067 109.19 48.1156 109.752 48.0236C112.759 47.5314 115.917 47.0146 118.888 45.3825C121.52 43.338 123.622 40.8266 125.152 38.0438L112.321 42.1959L126.147 36.012C126.544 35.0844 126.884 34.1379 127.161 33.1724C127.274 32.4278 127.363 31.6706 127.419 30.9071L116.061 36.5673L127.507 29.0645C127.514 28.85 127.514 28.6291 127.514 28.4082C127.514 27.0137 127.419 25.6318 127.243 24.2814C125.033 26.1366 121.96 28.6543 118.025 31.8283C118.025 31.8283 120.953 28.7869 126.796 22.7102C126.79 22.319 126.777 21.9404 126.764 21.5744C126.443 20.123 126.028 18.7096 125.511 17.3403C122.924 20.4827 120.367 23.4422 117.855 26.2312C119.448 23.8649 121.815 20.4512 124.976 15.9962C124.309 14.4439 123.522 12.9484 122.628 11.5286L115.261 21.8205L121.897 10.4244C120.789 8.82789 119.536 7.33238 118.157 5.96308C116.671 9.28852 114.657 13.7435 112.113 19.3216L117.144 4.99763C114.946 2.99732 112.465 1.31251 109.771 0C108.134 10.0268 106.641 17.4097 105.281 22.1486C108.996 24.7673 111.074 29.1402 110.74 33.6835ZM95.9124 26.3133H95.925H95.9313L95.9124 26.3259V26.3133ZM98.4372 23.947C98.0028 24.1615 97.5117 24.2751 96.9576 24.294C96.4035 24.029 96.032 23.4926 95.8431 22.6976C96.2209 23.133 96.6742 23.4926 97.2157 23.7703C97.6879 23.6441 98.0909 23.7009 98.4372 23.947ZM93.0974 37.972L93.1168 37.9933V37.9807H93.1105L93.0974 37.972ZM93.0974 37.972L93.0538 37.9239V37.9429L93.079 37.9555L93.0916 37.9681L93.0974 37.972ZM83.0378 87.844L83.2438 87.4775H83.2501H90.4279C92.8331 91.8882 94.5583 94.0337 97.6372 94.0337C98.8398 94.0337 100.282 93.6992 102.038 93.043L101.969 92.86C101.081 93.2007 100.294 93.3648 99.5575 93.3648C96.7305 93.3648 94.8038 90.8786 92.2601 86.2028L89.9871 82.4483C87.5819 78.0186 85.9575 75.8731 82.929 75.8731C81.739 75.8731 80.3349 76.2075 78.5782 76.8638L78.6286 77.0468C79.5164 76.7123 80.3034 76.542 81.0212 76.542C83.0801 76.542 84.6038 77.8987 86.2912 80.5174C84.4023 83.521 81.6886 87.5784 79.6486 90.3296C79.8627 90.2918 80.2656 90.2602 80.6686 90.2602C81.0715 90.2602 81.4682 90.2981 81.6886 90.3296C82.0702 89.5647 82.5441 88.722 83.0378 87.844ZM86.903 81.5351C85.985 82.9596 84.9293 84.6663 83.9301 86.3416H89.7353L88.1423 83.7103C87.7083 82.9222 87.2931 82.2035 86.903 81.5351ZM12.7689 80.5679L12.5675 80.6373C11.5286 79.4447 9.65856 78.8957 7.17781 78.8957C3.91631 78.8957 2.77668 79.9369 2.77668 80.9276C2.77668 82.3392 4.8072 82.5869 7.09737 82.8663C10.0592 83.2276 13.4552 83.6419 13.4552 86.6951C13.4552 90.2666 8.88411 90.6831 6.39706 90.6831C3.67076 90.6831 2.06519 90.2477 0.541484 89.6293L0 87.528L0.201482 87.4586C1.07037 88.8847 3.78409 89.6356 6.39077 89.6356C8.99744 89.6356 11.3082 89.0488 11.3082 87.2377C11.3082 85.6679 9.1471 85.4058 6.76931 85.1174C3.8615 84.7647 0.629632 84.3727 0.629632 81.5018C0.629632 78.1133 5.06224 77.8483 6.81892 77.8483C9.29337 77.8483 11.1886 78.2837 12.3912 78.839L12.7563 80.5679H12.7689ZM33.8493 90.2603C33.3645 90.2603 32.8482 90.2918 32.3571 90.3297C32.3658 90.1923 32.3755 90.0469 32.3859 89.8919V89.8918C32.4579 88.8156 32.561 87.2736 32.5775 84.6758H22.1885C22.1885 87.6416 22.3208 89.238 22.4215 90.3297L22.3039 90.322L22.3037 90.322C21.851 90.2923 21.3625 90.2603 20.9167 90.2603C20.4319 90.2603 19.9156 90.2918 19.4244 90.3297L19.4422 90.0817C19.5248 88.9345 19.6448 87.2686 19.6448 84.2089C19.6448 80.6047 19.5504 79.5946 19.4587 78.6134L19.4587 78.6133L19.4587 78.6133L19.4587 78.6132C19.4472 78.4899 19.4357 78.367 19.4244 78.2395L19.5779 78.2496C20.0172 78.2785 20.477 78.3089 20.9167 78.3089C21.4078 78.3089 21.9367 78.2773 22.4215 78.2395L22.4081 78.3592C22.2944 79.3737 22.2006 80.2107 22.1885 83.5084H32.5775C32.5601 80.3655 32.4736 79.4607 32.3815 78.4973C32.3734 78.4123 32.3653 78.3269 32.3571 78.2395L32.5105 78.2496L32.5109 78.2496H32.511H32.5112H32.5113L32.5115 78.2496C32.9506 78.2786 33.41 78.3089 33.8493 78.3089C34.3404 78.3089 34.8693 78.2773 35.3541 78.2395L35.3386 78.387C35.2259 79.4549 35.1338 80.3283 35.1338 84.2089C35.1338 87.4965 35.2534 89.1749 35.3541 90.3297L35.2365 90.322L35.2364 90.322C34.7837 90.2923 34.2952 90.2603 33.8493 90.2603ZM54.8222 79.981L54.4885 78.4539H54.4822C54.4444 78.2836 54.3815 78.2331 54.2115 78.2331C51.6587 78.2331 49.987 78.2599 48.7216 78.2802H48.7212H48.7208H48.7203H48.72H48.7196H48.7193H48.719H48.7187H48.7184H48.7182H48.7179H48.7177H48.7175H48.7174C47.9468 78.2926 47.3269 78.3025 46.7503 78.3025C45.2266 78.3025 43.3188 78.2646 41.7951 78.2331C41.8083 78.3822 41.822 78.5249 41.8358 78.6695C41.9281 79.6322 42.0281 80.6747 42.0281 84.2025C42.0281 87.1538 41.9063 88.8083 41.8222 89.9513L41.8222 89.9517C41.8126 90.0818 41.8035 90.2053 41.7951 90.3233C43.3 90.2855 45.1637 90.2539 46.6496 90.2539C47.272 90.2539 47.9395 90.2645 48.7525 90.2774H48.7526H48.7527H48.7529H48.7532H48.7535H48.7541L48.755 90.2775H48.7554H48.7559H48.7564H48.757C50.0242 90.2976 51.6447 90.3233 53.9974 90.3233C54.3185 90.3233 54.3689 90.3044 54.5011 90.0394L55.3889 88.1968L55.2252 88.0958C54.3374 89.0487 53.4118 89.1686 51.7244 89.1686H44.7481C44.7399 88.5123 44.7197 87.8585 44.6996 87.205C44.6735 86.3566 44.6474 85.5087 44.6474 84.6568H49.3633C50.1189 84.6568 51.9952 84.6947 52.6122 84.8777C52.5807 84.5622 52.5807 84.3414 52.5807 84.089V84.0889V84.0888C52.5807 83.8364 52.5807 83.6219 52.6122 83.3001C51.9889 83.4516 50.1189 83.5021 49.3633 83.5021H44.6474C44.6474 82.7337 44.6736 81.9531 44.6998 81.1741C44.7199 80.5778 44.7399 79.9824 44.7481 79.3942H52.3289C53.2481 79.3942 54.3059 79.5141 54.6396 80.0504L54.8222 79.981ZM64.1534 90.2603C63.1648 90.2603 61.9748 90.2918 60.9926 90.3297L61.0104 90.0817C61.093 88.9345 61.213 87.2686 61.213 84.2089C61.213 80.6047 61.1186 79.5946 61.0269 78.6134C61.0154 78.49 61.0039 78.3671 60.9926 78.2395L61.0008 78.2397C61.9877 78.2712 63.1676 78.3089 64.1534 78.3089C64.6005 78.3089 65.0075 78.2978 65.4968 78.2846H65.4972C66.2343 78.2645 67.1581 78.2395 68.6867 78.2395C72.1308 78.2395 74.2779 79.0787 74.2779 81.3062C74.2779 82.5809 73.6419 83.3886 71.9356 83.723C74.1142 83.8934 75.3986 84.8462 75.3986 86.7771C75.3986 89.7429 72.3512 90.3297 69.2723 90.3297C67.797 90.3297 66.5923 90.304 65.6495 90.2838H65.649H65.6486C65.0427 90.2709 64.545 90.2603 64.1534 90.2603ZM63.7693 79.4132L63.7378 83.3191H68.693C70.6638 83.3191 71.539 82.7008 71.539 81.3062C71.539 80 70.6827 79.4132 68.693 79.4132H63.7756H63.7693ZM63.7693 89.1749L63.7379 84.3982H68.6867C70.8275 84.3982 72.5338 84.7642 72.5338 86.7771C72.5338 88.607 71.0982 89.1749 69.2723 89.1749H63.7693ZM112.604 84.1079C112.604 87.4775 115.412 89.7239 119.599 89.7239C121.053 89.7239 122.508 89.5031 123.547 89.0551C123.529 86.4305 123.442 85.6386 123.35 84.7963L123.336 84.6694L123.326 84.5749C123.442 84.5829 123.56 84.5922 123.678 84.6016C124.025 84.6289 124.38 84.6569 124.718 84.6569C125.05 84.6569 125.4 84.6298 125.746 84.6028L125.879 84.5925L125.975 84.5853L126.044 84.5803L126.122 84.5749L126.11 84.6683C125.996 85.6107 125.908 86.3413 125.908 89.604C125.74 89.6508 125.57 89.7 125.397 89.7501C124.892 89.8962 124.361 90.0498 123.798 90.172C122.495 90.4748 121.072 90.7273 119.567 90.7273C114.115 90.7273 109.625 88.4998 109.625 84.1205C109.625 80.0947 113.504 77.8483 119.517 77.8483C121.557 77.8483 123.515 78.1133 125.221 78.7885C125.435 78.8579 125.637 78.9715 125.687 79.1734L125.939 81.2557L125.757 81.3062C124.8 79.8991 122.627 78.8579 119.517 78.8579C115.67 78.8579 112.604 80.5869 112.604 84.1079ZM151.401 84.1079C151.401 80.1515 147.132 77.8546 141.995 77.8546V77.8483C136.171 77.8483 132.273 80.448 132.273 84.4234C132.273 88.3988 136.573 90.7146 141.661 90.7146C147.504 90.7146 151.401 88.0644 151.401 84.1079ZM141.856 89.7239C138.028 89.7239 135.333 87.6795 135.333 84.2594V84.2531C135.333 80.65 138.229 78.839 141.793 78.839C145.609 78.839 148.335 80.732 148.335 84.3225C148.335 87.9129 145.439 89.7239 141.856 89.7239ZM160.218 90.2603C159.382 90.2604 158.395 90.2919 157.559 90.3297L157.577 90.0816V90.0815V90.0813V90.0812V90.081V90.0809V90.0807V90.0805V90.0804V90.0802C157.66 88.9331 157.78 87.2673 157.78 84.2089C157.78 80.6047 157.685 79.5946 157.594 78.6134C157.582 78.49 157.571 78.3671 157.559 78.2395L157.714 78.2497C158.153 78.2786 158.612 78.3089 159.045 78.3089C159.53 78.3089 160.065 78.2773 160.55 78.2395L160.526 78.4658C160.416 79.4999 160.317 80.4241 160.317 84.2089C160.317 86.4422 160.378 87.9136 160.422 88.9729L160.43 89.1749H167.545C168.584 89.1749 169.1 89.1245 170.02 88.1338L170.221 88.2158L169.22 90.1278C169.138 90.2982 169.05 90.3297 168.817 90.3297C162.017 90.3297 160.857 90.2831 160.438 90.2663H160.438C160.346 90.2626 160.29 90.2603 160.218 90.2603ZM175.367 79.0395V79.0397C175.417 79.954 175.478 81.052 175.478 84.2087L175.485 84.215C175.485 87.5026 175.403 89.0928 175.334 90.3359C176.354 90.298 177.84 90.2664 178.878 90.2664C179.282 90.2664 179.67 90.2769 180.145 90.2897H180.145H180.146C180.894 90.3099 181.856 90.3359 183.431 90.3359C189.255 90.3359 192 87.5973 192 84.2466C192 80.8959 189.255 78.2456 183.431 78.2456C182.017 78.2456 181.075 78.2738 180.296 78.2971C179.745 78.3136 179.275 78.3277 178.778 78.3277C178.107 78.3277 177.238 78.3053 176.44 78.2847C176.04 78.2744 175.658 78.2646 175.327 78.2583C175.339 78.5324 175.352 78.778 175.367 79.0385L175.367 79.0395ZM183.431 79.4256C187.478 79.4256 189.153 81.4875 189.154 84.2371C189.153 87.0372 187.478 89.1306 183.431 89.1306C181.838 89.1306 179.666 89.0801 178.091 89.0297C178.041 87.856 178.01 86.4993 178.01 84.2024C178.01 81.508 178.028 80.5804 178.06 79.5266C179.647 79.4572 181.844 79.4256 183.431 79.4256ZM58.1844 105.524L59.3933 106.036C58.6755 106.982 57.284 107.664 55.3573 107.664C52.5051 107.664 50.7106 106.351 50.7106 104.212C50.7106 102.073 52.5051 100.76 55.4077 100.76C57.2777 100.76 58.6692 101.448 59.3807 102.382L58.1655 102.906C57.5988 102.104 56.6292 101.751 55.3888 101.751C53.374 101.751 52.0392 102.59 52.0392 104.218C52.0392 105.846 53.3803 106.686 55.3888 106.686C56.6292 106.686 57.6051 106.345 58.1844 105.531V105.524ZM67.7422 105.897H72.6219L73.6041 107.468H75.0271L70.9156 100.95H69.48L65.3559 107.468H66.7726L67.7422 105.897ZM70.1915 101.928L72.0489 104.944H68.3341L70.1915 101.928ZM90.1571 103.082C90.1571 104.452 88.9293 105.215 87.0782 105.215H83.2374V107.468H81.9341V100.95H87.0782C88.9293 100.95 90.1571 101.719 90.1571 103.082ZM88.816 103.095C88.816 102.256 88.0856 101.934 86.9648 101.934H83.2311V104.262H86.9648C88.0856 104.262 88.816 103.928 88.816 103.101V103.095ZM97.3601 100.95V107.468H98.6637V100.95H97.3601ZM113.901 101.928H110.431V107.468H109.128V101.928H105.678V100.95H113.901V101.928ZM121.022 105.897H125.908L126.884 107.468H128.306L124.195 100.95H122.759L118.635 107.468H120.052L121.022 105.897ZM123.471 101.928L125.328 104.944H121.613L123.471 101.928ZM142.127 106.477V107.468H135.214V100.95H136.517V106.477H142.127Z" fill="url(#paint0_linear_4383_157)"/>
<defs>
<linearGradient id="paint0_linear_4383_157" x1="9.27103" y1="62.5047" x2="195.596" y2="17.6739" gradientUnits="userSpaceOnUse">
<stop stop-color="#EACEA9"/>
<stop offset="0.407428" stop-color="#D7A25B"/>
<stop offset="0.639415" stop-color="#FDEED5"/>
<stop offset="1" stop-color="#CDA36C"/>
</linearGradient>
</defs>
</svg>
