<svg xmlns="http://www.w3.org/2000/svg" width="705" height="725" fill="none" viewBox="0 0 705 725">
  <path fill="#fff" d="M302.406 724.301c20.032-17.546 32.368-41.436 35.574-66.721l.121-.719.192-.7-.026-.458.177-1.755.081-1.406.096-.35.035-1.793c.095-1.177.118-2.373.193-3.479.043-1.266.047-2.392.052-3.518.016-1.723-.058-3.396-.151-4.998l-.046-.388-.015-1.056-.04-.687a91.424 91.424 0 0 0-.767-7.192l-.248-1.87-.065-.318c-.306-1.659-.592-3.389-.988-4.997l-.41-1.838c-.428-1.767-.856-3.535-1.375-5.252-20.038-48.191-52.259-66.666-89.831-76.733-15.95-4.274-32.857-7.001-50.171-9.913-17.313-2.911-35.071-5.866-52.722-10.596-16.163-4.33-32.226-10.137-47.79-18.59-29.415-22.606-52.848-50.371-69.846-81.07l143.47 46.256-154.52-68.674c-2.743-6.37-5.254-12.752-7.475-19.357-2.245-11.795-3.806-23.859-4.795-36.069l125.025 61.898L.067 320.021c-.07-2.798-.068-5.577-.067-8.357a361.152 361.152 0 0 1 2.92-44.218c24.54 20.399 58.28 47.77 101.339 82.221 0 0-32.636-33.611-97.837-100.816l.053-2.69a337.851 337.851 0 0 1 15.621-55.014c28.457 34.145 56.504 66.452 84.162 96.851-17.485-25.87-43.583-63.064-78.314-111.511 7.394-17.251 16.253-33.734 26.253-49.385l81.182 112.43-73.088-124.461a349.718 349.718 0 0 1 41.751-49.289c16.526 36.582 38.691 85.343 66.707 146.34L115.295 55.275c24.539-22.048 52.254-40.691 82.347-55.24 17.943 110.21 34.41 191.401 49.418 243.503-41.667 28.727-64.992 76.869-61.382 126.969 2.996 42.347 24.936 80.831 59.049 105.448-17.441-44.34-17.674-100.372 26.421-178.182-6.562 1.171-16.493 5.196-29.672 12.183 2.556-7.654 21.528-23.831 56.864-48.621-10.704.738-21.536 1.667-32.536 2.927 41.821-29.287 79.825-39.388 113.852-30.271 15.1 4.046 29.466 11.877 43.027 23.474 2.422.048 4.645.268 6.629.8 15.171 4.065 18.987 22.892 11.429 56.552-4.456-6.227-9.57-9.776-14.816-11.182-16.943-4.54-35.538 13.316-41.444 34.572-5.977 21.237.735 45.874 34.337 54.877 9.783 2.622 21.766 3.879 36.419 3.448 22.527.552 42.062-7.135 58.516-23.011l-45.688 45.606.491.432.071.019-.02.07c.891.914 1.782 1.829 2.601 2.725l.104.178c.768.807 1.536 1.614 2.214 2.471l.141.038.207.356c.697.788 1.324 1.557 2.021 2.345l.103.178.349.393 1.601 1.932.626.769 1.459 1.893.555.75.259.445.865 1.284.278.375.485.73.258.445.917 1.373.691 1.087.259.445.536.819 2.43 4.182.187.426.446.871c16.225-21.421 26.355-47.255 28.448-74.866 3.837-50.058-19.21-98.379-60.739-127.312 15.369-52.151 32.275-133.491 50.86-243.98a355.05 355.05 0 0 1 82.306 55.335l-56.713 157.669c28.646-61.44 51.294-110.439 68.031-147.049a344.274 344.274 0 0 1 41.715 49.342l-74.57 125.388 82.703-113.142a341.422 341.422 0 0 1 26.108 49.367c-35.511 49.008-62.083 86.513-79.948 112.528 28.202-30.683 56.831-63.204 85.927-97.704 5.671 15.118 10.369 30.726 13.884 46.768.188 4.032.266 8.185.307 12.478-65.578 66.795-98.412 100.218-98.412 100.218 44.123-34.906 78.552-62.492 103.307-82.83a343.642 343.642 0 0 1 2.88 45.547c.024 2.411-.043 4.872-.09 7.264l-128.255 82.23 127.198-62.004a369.718 369.718 0 0 1-2.969 24.973c-3.13 10.58-6.917 21.06-11.465 31.26l-154.853 67.666 143.706-45.335c-17.155 30.638-40.788 58.262-70.287 80.634-39.452 21.207-81.932 25.151-120.973 31.818l-.52 1.063-.501.993-.41.942-1.021 2.055-.172.63-1.329 2.348-.039.14-.148.261-1.348 2.419-.076.28-1.529 2.52-.038.14-1.509 2.45-.096.35-.2.172-1.509 2.451-.038.14-.386.572c-.918 1.407-1.818 2.744-2.736 4.15l-.604.815-.058.21-1.394 2.031-.732 1.005-1.394 2.031-.077.28-.238.312-1.117 1.579-.624.884-.038.14-.071-.019-1.465 2.012-.456.554-.347.433-1.555 2.062-.077.28-2.063 2.527-.218.242-.039.14-.893 1.038-.823 1.057-.456.554-.347.433-.803.986-.823 1.057-.874.968-.823 1.057-.784.916-.912 1.108-1.749 1.936-1.768 2.005-.237.312-.656.726-.893 1.038-.875.967-.893 1.038-.874.968-.566.675-2.166 2.349-.309.293-.636.656-1.839 1.987c14.938-55.573-14.371-107.976-62.912-152.686l-.542-.521-.561-.451-3.161-2.349-.613-.54-1.264-.94-.613-.54-1.264-.939-.613-.54-.632-.47-1.226-1.08-.632-.47-1.839-1.619-.632-.47-11.033-9.718-.542-.521-1.226-1.079-.542-.521-1.225-1.08-1.085-1.042-.612-.54-1.085-1.041-.522-.591-1.084-1.042-.613-.54-1.084-1.041-.523-.591-.542-.521-.523-.591-1.084-1.042-2.092-2.363c-8.32-12.672-13.138-26.735-14.478-40.992l-.073-.846.058-.21-.132-1.463-.059-.616-.086-1.075-.066-1.145.012-.598-.027-.458-.015-1.055.039-.14c-.015-1.056-.03-2.112.007-3.079l.057-.21-.001-.826.017-.897.058-.21.01-1.425.05-.738.057-1.036.138-1.616.158-1.685c.312-2.246.623-4.491 1.057-6.629.236-1.139.453-2.207.76-3.327l.442-1.61.864-3.149.499-1.819c.288-1.05.717-2.062 1.076-3.093l.058-.21.359-1.03.115-.42.564-1.502c.449-1.082.878-2.094 1.308-3.105a92.204 92.204 0 0 1 3.061-6.167 63.43 63.43 0 0 1 2.601-4.487 41.056 41.056 0 0 1 1.836-2.813l.039-.14c.713-.936 1.356-1.891 2.069-2.826l.288-1.05.218-.242.173-.63.09-.051.038-.14.071.019.039-.14.437-.484.057-.21.257-.382a105.968 105.968 0 0 1 2.738-3.323l1.402-1.502.636-.656c6.898-7.393 14.669-12.973 22.76-15.839l-.071-.019-1.732.212-.071-.019-.09.051-.251.083-.071-.019-.09.051-.805.16-.071-.019-.019.07-.071-.019-.019.07-.071-.019-1.217.275-.071-.019-.09.051-.071-.019-.09.051-.071-.019-.09.051c-4.404 1.074-8.626 2.873-12.628 5.256l-.161.032c-37.357 22.445-55.604 95.912-35.79 123.834l.051.089c9.19 12.83 30.383 30.454 42.705 40.742 3.49 2.813 6.799 5.729 10.071 8.784l1.678 1.651.07.019.349.394.419.413 1.504 1.455.174.197.839.826.142.038.278.375.419.412.349.394 2.097 2.065.142.038.206.356.42.413 2.007 2.115.42.413.174.197.226.286.839.826.329.464.42.412.277.375.071.019.4.483.42.413.348.394.42.413.4.483.071.019.329.464.42.413.348.393.071.019.33.464.419.413.749.877.329.464.142.038.278.375.4.483.348.394.401.482.329.464.226.286.104.178.4.483.329.464 1.459 1.894.401.482.206.356.142.038.31.534c10.37 13.522 19.113 28.26 25.931 43.91 11.95 35.507 6.12 62.868-8.652 86.481l-.096.35a155.873 155.873 0 0 1-8.686 12.247l-1.041 1.299-.257.382-.366.503-.694.866-.238.312-.038.14-.418.414-.276.451-.566.675-.057.21-.418.414-.694.866-.058.21-.289.223-1.041 1.298-.058.211-.289.223-1.042 1.298-.038.14-.309.293-3.47 4.329-.257.382-.366.503-.694.866-.238.312-.038.14-.418.413-.694.866-.675.796-.694.866-.058.21-.289.223-.694.865-.328.363-.058.21-.289.223-1.041 1.299-.039.14-.308.293-.694.866-.328.363-.694.865-.328.363-1.041 1.299c-22.421 24.869-48.237 46.575-76.829 64.532m25.885-394.314c-.359 1.031-.737 2.132-1.005 3.112l1.005-3.112Zm22.884-80.939c2.091 8.749 6.25 14.671 12.426 17.678 6.222-.211 11.734-1.438 16.554-3.753a13.843 13.843 0 0 0-4.642-2.22c-2.765-.741-5.76-.642-9.037.208-5.996-3.109-11.085-7.028-15.371-11.932m.602 39.978s.109-.121.18-.102l-.18.102Zm-31.518 128.51-.071-.019-.174-.197-.213-.057-.258-.445.716.718Z"/>
</svg>
