<svg xmlns="http://www.w3.org/2000/svg" width="150" height="150" fill="none" viewBox="0 0 150 150">
  <g class="Logo">
    <g class="Logo">
      <g class="Group">
        <path fill="url(#a)" d="M71.203 114.503a9.87 9.87 0 0 0 3.334-6.469l.01-.07.017-.068-.004-.045.013-.172.004-.137.009-.034-.001-.176c.006-.115.005-.232.01-.34 0-.124-.001-.235-.004-.345a7.26 7.26 0 0 0-.028-.49l-.005-.038-.004-.104-.006-.067a9.061 9.061 0 0 0-.094-.706l-.03-.184-.007-.031c-.034-.163-.067-.333-.11-.492l-.045-.18a10.129 10.129 0 0 0-.149-.518c-2.097-4.76-5.32-6.631-9.047-7.69-1.583-.448-3.256-.748-4.969-1.066-1.713-.319-3.47-.642-5.222-1.14-1.604-.454-3.201-1.054-4.756-1.912a27.537 27.537 0 0 1-7.09-8.076l14.255 4.806-15.401-7.024c-.287-.629-.55-1.26-.786-1.91a33.79 33.79 0 0 1-.565-3.544l12.477 6.304-12.632-8.269c-.014-.274-.02-.547-.028-.819a34.914 34.914 0 0 1 .175-4.327c2.47 2.046 5.864 4.792 10.195 8.25 0 0-3.302-3.356-9.898-10.065l-.002-.263a31.826 31.826 0 0 1 1.398-5.36 310.83 310.83 0 0 0 8.541 9.65c-1.789-2.569-4.456-6.263-8.002-11.076a31.64 31.64 0 0 1 2.46-4.788l8.287 11.17-7.52-12.333a32.07 32.07 0 0 1 3.987-4.75 2649.63 2649.63 0 0 0 6.948 14.466l-5.866-15.474a32.714 32.714 0 0 1 7.972-5.255c2.05 10.833 3.881 18.819 5.493 23.952-4.031 2.735-6.206 7.408-5.722 12.323.404 4.155 2.664 7.967 6.088 10.444-1.832-4.377-1.998-9.868 2.147-17.407-.644.102-1.612.478-2.893 1.137.233-.745 2.06-2.294 5.479-4.655a70.46 70.46 0 0 0-3.199.225c4.046-2.79 7.765-3.707 11.14-2.749 1.499.426 2.934 1.22 4.3 2.383.239.009.459.035.656.09 1.505.428 1.929 2.28 1.27 5.563-.455-.619-.968-.976-1.488-1.124-1.681-.477-3.468 1.237-3.995 3.308-.534 2.07.19 4.496 3.524 5.443.97.275 2.154.421 3.597.407 2.221.097 4.126-.619 5.707-2.143l-4.385 4.381.05.043.006.002-.001.007c.09.092.18.183.263.272l.01.018c.078.08.156.16.225.246l.014.004.021.035c.071.079.135.156.206.234l.01.018.035.039.163.192.064.077.148.188.057.075.027.044.088.127.029.037.05.073.026.044.094.136.07.108.027.044.055.081.027.045.069.114.101.168.053.088.02.042.046.086a13.242 13.242 0 0 0 2.611-7.28c.25-4.898-2.145-9.676-6.31-12.59 1.38-5.08 2.837-13.018 4.385-23.807a37.261 37.261 0 0 1 8.252 5.578l-5.184 15.34a2089.032 2089.032 0 0 0 6.326-14.277 36.127 36.127 0 0 1 4.237 4.913l-7.026 12.143 7.858-10.927a35.162 35.162 0 0 1 2.699 4.886c-3.373 4.734-5.895 8.358-7.589 10.873a278.676 278.676 0 0 0 8.217-9.409 34.57 34.57 0 0 1 1.487 4.609c.029.395.048.802.062 1.223-6.29 6.42-9.44 9.631-9.44 9.631 4.259-3.336 7.58-5.973 9.967-7.918a33.73 33.73 0 0 1 .401 4.468c.008.236.008.477.01.712l-12.427 7.811 12.374-5.832a35.234 35.234 0 0 1-.228 2.441 23.756 23.756 0 0 1-1.05 3.041L93.344 89.57l14.043-4.167a24 24 0 0 1-6.719 7.766c-3.833 2.002-8.008 2.307-11.838 2.886l-.048.103-.047.097-.038.091-.095.2-.005.02-.002.007-.009.034-.125.227-.003.014-.014.025-.127.235-.006.027-.145.244-.003.014-.142.237-.009.034-.02.016-.142.238-.003.013-.036.056-.26.401-.057.079-.005.02-.132.197-.035.048-.035.049-.132.196-.007.027-.022.03-.106.153-.06.085-.003.014-.007-.002-.14.194-.043.054-.033.041-.148.2-.007.027-.196.243-.021.024-.004.013-.085.1-.078.102-.044.054-.033.041-.077.096-.078.102-.02.023-.064.07-.078.102-.075.088-.087.107-.084.093-.052.058-.031.035-.17.193-.022.03-.063.07-.085.1-.084.093-.085.1-.084.093-.054.065-.207.226-.03.029-.06.063-.177.191c1.33-5.416-1.693-10.607-6.59-15.08l-.055-.052-.056-.045-.064-.047-.063-.048-.063-.047-.064-.047-.064-.047-.061-.055-.064-.047-.063-.047-.062-.054-.063-.047-.064-.048-.062-.054-.063-.047-.062-.054-.062-.054-.063-.047-.062-.054-.062-.054-.062-.054-.063-.048-.062-.054-.062-.054-.061-.054-.062-.054-.062-.054-.062-.054-.062-.054-.061-.054-.062-.054-.062-.054-.062-.055-.061-.053-.062-.055-.062-.054-.062-.054-.061-.054-.062-.054-.062-.054-.055-.052-.062-.054-.061-.054-.055-.052-.062-.054-.062-.054-.054-.052-.055-.052-.062-.055-.055-.052-.054-.052-.053-.059-.055-.052-.055-.052-.062-.054-.054-.052-.055-.052-.053-.059-.055-.052-.053-.059-.055-.052-.055-.052-.053-.059-.052-.059-.053-.058-.054-.06a9.164 9.164 0 0 1-1.531-4.043l-.01-.083.006-.02-.017-.144-.007-.06-.012-.106-.01-.113v-.058l-.003-.045-.004-.104.003-.013c-.004-.104-.008-.207-.007-.302l.005-.02-.002-.081v-.088l.004-.02-.002-.14.003-.072.002-.102.01-.158.011-.165c.025-.219.05-.438.087-.647.02-.111.04-.216.067-.325l.04-.156.076-.307.004-.014.036-.143.005-.02c.025-.103.065-.201.098-.302l.005-.02.033-.1.008-.034.002-.007.052-.146.12-.302a8.594 8.594 0 0 1 .705-1.305l.003-.014c.068-.09.13-.182.197-.273l.002-.007.003-.013.002-.007.002-.007.001-.007.004-.013.001-.007.002-.007.004-.014.001-.006.002-.007.002-.007.02-.023.006-.02.001-.008.006-.02.003-.014.009-.004.003-.014.007.002.004-.014.041-.046.006-.02.024-.038c.089-.113.176-.22.261-.32l.134-.145.061-.063c.661-.71 1.412-1.243 2.202-1.508l-.007-.002-.17.017-.007-.002-.009.005-.024.008-.007-.002-.009.005-.079.014-.007-.002-.001.007-.008-.002-.001.007-.007-.002-.12.024-.007-.002-.008.005-.007-.002-.009.005-.007-.002-.009.005a4.337 4.337 0 0 0-1.23.49l-.016.003c-3.624 2.128-5.233 9.291-3.21 12.065l.006.009c.938 1.274 3.071 3.041 4.312 4.073.35.282.684.574 1.015.88l.042.04.042.042.043.041.042.042.007.002.036.039.042.041.152.146.017.02.043.04.042.042.014.004.029.037.042.041.035.04.043.04.042.042.043.041.042.041.042.042.014.004.022.035.042.041.203.211.043.042.017.02.023.028.043.041.042.041.034.046.042.042.028.037.008.002.04.048.043.041.017.02.018.02.042.04.041.049.007.002.034.046.042.041.035.04.007.001.034.046.042.042.076.087.034.046.014.004.028.037.041.048.035.04.041.048.034.046.023.028.01.018.041.048.034.046.148.188.041.048.021.036.014.004.032.053a21.83 21.83 0 0 1 2.668 4.351c1.268 3.502.764 6.172-.631 8.457l-.009.034c-.251.403-.523.794-.824 1.183l-.033.042-.033.042-.033.042-.025.036-.034.049-.034.042-.033.042-.022.03-.004.013-.04.04-.026.044-.054.065-.005.02-.04.04-.033.042-.033.042-.005.02-.028.021-.033.042-.034.042-.032.042-.006.02-.028.021-.033.042-.033.042-.033.042-.003.013-.03.028-.033.042-.033.042-.033.042-.033.041-.033.042-.033.042-.033.042-.034.041-.033.042-.033.042-.024.037-.035.048-.033.042-.033.042-.023.03-.003.014-.04.039-.033.042-.033.042-.065.076-.033.042-.033.042-.005.02-.028.022-.033.041-.033.042-.032.035-.005.021-.028.021-.033.042-.033.041-.033.042-.003.014-.03.028-.033.042-.033.041-.032.035-.033.042-.033.042-.031.035-.033.042-.033.041-.033.042a33.501 33.501 0 0 1-7.405 6.176m1.54-38.584a4.8 4.8 0 0 0-.091.303l.091-.303Zm2.047-7.886c.229.86.654 1.449 1.27 1.755.613-.008 1.153-.118 1.621-.336a1.44 1.44 0 0 0-.462-.226 1.733 1.733 0 0 0-.89.003 5.42 5.42 0 0 1-1.546-1.199m.162 3.919s.01-.012.018-.01l-.018.01Zm-2.776 12.53-.007-.002-.018-.02-.02-.005-.017-.027-.01-.017.072.071Z" class="Vector"/>
        <path fill="#989898" d="M24.151 93.277c-.237-.585-.835-.872-1.388-.678-.57.203-.8.787-.563 1.373.243.594.837.894 1.408.691.552-.193.792-.79.543-1.386Zm-7.969-27.839 5.279 2.36-5.494 1.404-.06 1.107 5.268 2.496-5.484 1.275-.069 1.207 6.864-1.738.065-1.157-5.315-2.487 5.543-1.39.066-1.163-6.588-3.082-.068 1.17-.007-.002Zm8.1-5.401-6.55-1.823-.272 1.083 6.557 1.825.274-1.09-.009.005Zm-1.02-9.195c-.69 1.25-1.257 2.19-1.91 1.882-.685-.326-.421-1.558.017-2.492.456-.98 1.095-1.697 1.928-2.044l-.43-.984c-.949.417-1.839 1.325-2.42 2.62-.767 1.71-.708 3.39.518 3.965 1.266.593 2.338-.767 3.222-2.341.805-1.436 1.31-2.103 1.95-1.797.645.307.675 1.206.08 2.526-.541 1.197-1.304 1.988-2.42 2.445l.466.993c1.248-.536 2.222-1.566 2.857-2.955.913-2.018.575-3.523-.596-4.074-1.293-.608-2.262.496-3.244 2.276l-.017-.02Zm3.58-11.619-1.95 2.666 5.532 4.023 1.947-2.66c1.43-1.95 1.281-3.964-.424-5.207-1.705-1.244-3.677-.767-5.107 1.185l.001-.007Zm4.649 3.488-1.24 1.7-3.87-2.815 1.24-1.7c1.008-1.377 2.373-1.866 3.651-.933 1.28.932 1.234 2.372.226 3.75l-.007-.002Zm9.108-7.83c1.942-1.588 2.252-3.602.782-5.304-1.47-1.702-3.556-1.754-5.498-.167-1.942 1.588-2.251 3.602-.782 5.304 1.47 1.702 3.557 1.754 5.498.166Zm-.676-.784c-1.382 1.126-2.863 1.15-3.948-.106-1.077-1.255-.795-2.678.58-3.806 1.372-1.122 2.86-1.144 3.938.11 1.078 1.255.804 2.674-.57 3.802Zm10.77-13.402-.976 4.73-4.56-2.134-1.109.517 3.126 5.99.99-.464-2.4-4.593 4.644 2.128.06-.027 1.035-4.786 2.4 4.594 1.023-.476-3.126-5.99-1.1.513-.007-.002Zm21.79-.056c.637-.016 1.074-.468 1.033-1.057-.044-.604-.54-1.029-1.176-1.012-.643.014-1.093.456-1.05 1.066.04.588.55 1.018 1.193 1.003Zm29.055 2.278-3.643 4.14.029-5.634-1.064-.44-3.767 4.091.16-5.583-1.154-.473-.05 7.037 1.104.46 3.777-4.133-.053 5.671 1.118.464 4.674-5.126-1.125-.466-.006-.008Zm3.741 8.697 1.089-1.487 3.775 2.743.573-.786-3.775-2.743 1.029-1.401 4.489 3.26.573-.787-5.43-3.943-3.847 5.251 5.506 4.001.574-.786-4.564-3.317.008-.005Zm11.669 11.72.873.928 2.305-7.054-.886-.938-7.373 1.696.869.918 1.763-.427 3.002 3.181-.567 1.693.014.004Zm-1.369-5.132 3.389-.82-1.098 3.237-2.289-2.424-.002.007Zm5.956 9.83 4.855-2.732-.609-.99-5.724 3.221 3.221 5.25.867-.483-2.612-4.26.002-.007Zm11.546 10.766-2.745-6.728-.934.333 1.151 2.823-5.305 1.881.433 1.065 5.305-1.881 1.161 2.84.934-.333Zm2.698 11.145-2.751.402-.978-4.95 2.75-.4-.223-1.123-6.611.97.223 1.122 2.845-.419.971 4.948-2.843.412.223 1.121 6.611-.97-.223-1.121.006.008Zm-5.364 20.47c-.151.6.181 1.169.766 1.328.597.17 1.139-.159 1.289-.758.152-.607-.171-1.18-.768-1.35-.583-.165-1.133.168-1.278.776l-.009.005Zm-9.157 16.993 1.541 1.174-2.72 3.52.814.626 2.72-3.52 1.454 1.106-3.231 4.177.814.626 3.902-5.053-5.432-4.148-3.96 5.131.816.619 3.289-4.256-.007-.002Zm-7.252 15.664-3.375-3.915 7.164.815.927-.751-4.448-5.161-.834.683 3.51 4.07-7.461-.834-.766.622 4.448 5.161.843-.688-.008-.002Zm-8.995 5.461 2.985-1.488-3.271-5.922-2.985 1.489c-2.187 1.094-2.96 2.918-1.953 4.752 1.009 1.826 3.03 2.262 5.215 1.174l.009-.005Zm-2.701-5.073 1.902-.95 2.286 4.146-1.902.949c-1.548.772-3.013.612-3.767-.763s-.068-2.61 1.481-3.382ZM90.02 133.56l-.916-3.34c-.397-1.449.224-2.513 1.788-2.865 1.555-.347 2.655.338 3.052 1.786l.915 3.34 1.115-.245-.935-3.412c-.522-1.907-2.125-2.961-4.413-2.45-2.304.514-3.173 2.114-2.65 4.022l.935 3.411 1.115-.245-.007-.002Zm-15.025-5.608 2.288 2.46c-1.165.202-1.935.903-1.884 2.049.063 1.368 1.248 2.106 2.812 2.112l4.575.006-.298-6.61-1.152.002.106 2.395-2.837-.003-2.197-2.404-1.422-.002.01-.005Zm6.506 3.379.098 2.247-3.356-.003c-.962-.004-1.63-.31-1.666-1.13-.035-.82.605-1.121 1.57-1.124l3.356.004-.002.006Zm-16.952-5.096-1.246-.252 2.537 7.195 1.254.253 4.657-5.75-1.232-.248-1.103 1.395-4.272-.855-.603-1.733.008-.005Zm4.206 3.427-2.117 2.677-1.138-3.324 3.253.654.002-.007Zm-17.56-1.503 1.912-4.559 2.764 6.624 1.137.505 2.524-6.006-1.037-.455-1.996 4.74-2.891-6.894-.94-.42-2.524 6.006 1.042.464.01-.005Zm-6.246-10.474c1.464 1.065 1.938 2.448.976 3.759-.96 1.311-2.429 1.281-3.886.218-.903-.658-1.398-1.448-1.333-2.393l-1.194-.222c-.033 1.122.57 2.41 1.93 3.402 2.115 1.534 4.19 1.423 5.45-.3 1.263-1.729.733-3.726-1.336-5.233-1.4-1.018-2.813-1.207-3.889-.819l.572 1.052c.9-.35 1.81-.106 2.716.545l-.006-.009Zm-7.054-5.813-1.372 1.239-3.2-3.383-.722.656 3.2 3.383-1.295 1.173-3.8-4.021-.723.656 4.597 4.867 4.84-4.377-4.67-4.939-.72.656 3.872 4.092-.007-.002Z" class="Vector"/>
      </g>
    </g>
  </g>
  <defs>
    <linearGradient id="a" x1="56.674" x2="102.963" y1="77.384" y2="57.441" class="a" gradientUnits="userSpaceOnUse">
      <stop stop-color="#8B6737"/>
      <stop offset=".33" stop-color="#DEB36B"/>
      <stop offset=".69" stop-color="#FFFCE8"/>
      <stop offset="1" stop-color="#8B6737"/>
    </linearGradient>
  </defs>
</svg>
