<svg width="250" height="81" viewBox="0 0 250 81" fill="none" xmlns="http://www.w3.org/2000/svg">
<rect x="68" y="44.0356" width="67" height="7" transform="rotate(-180 68 44.0356)" stroke="url(#paint0_linear_5043_1581)" stroke-width="2"/>
<circle cx="125" cy="40.5356" r="40" fill="#C9A96E"/>
<path d="M133.88 61.5356C133.112 60.7036 131.64 58.9756 129.912 56.4156C127.352 60.3196 124.408 62.3676 120.504 62.3676C112.952 62.3676 109.368 56.5436 109.368 50.7836C109.368 45.3436 112.952 41.7596 117.816 38.1116C114.808 33.5036 113.016 30.1756 113.016 26.0796C113.016 20.8956 116.856 16.1596 121.72 16.1596C126.52 16.1596 130.168 20.3196 130.168 24.8636C130.168 30.1756 126.456 33.1196 122.104 36.1916L131.832 50.9116C132.728 48.7996 133.56 46.3676 134.328 43.6156C135.224 40.4796 134.136 39.3916 131.704 39.0716L130.68 38.9436V38.4316H140.728V38.9436L139.896 39.0716C137.592 39.3916 136.248 40.3516 135.16 43.8716C134.264 46.8156 133.368 49.3756 132.344 51.6796L133.496 53.3436C137.08 58.7196 138.872 60.7036 140.792 60.9596L141.368 61.0236V61.5356H133.88ZM114.104 49.5676C114.104 54.8156 116.984 61.0236 122.104 61.0236C124.792 61.0236 127.224 59.2956 129.464 55.7756C129.336 55.5836 129.272 55.4556 129.144 55.3276L118.2 38.6876C114.744 42.2076 114.104 45.4716 114.104 49.5676ZM116.856 23.6476C116.856 27.5516 118.392 30.6236 121.72 35.6796C125.112 32.9916 126.648 29.7276 126.648 24.6716C126.648 19.9356 124.472 16.9276 121.656 16.9276C118.968 16.9276 116.856 19.2956 116.856 23.6476Z" fill="black"/>
<rect x="182" y="37.0356" width="67" height="7" stroke="url(#paint1_linear_5043_1581)" stroke-width="2"/>
<defs>
<linearGradient id="paint0_linear_5043_1581" x1="69" y1="49.5356" x2="138" y2="49.5356" gradientUnits="userSpaceOnUse">
<stop offset="0.360577" stop-color="#C9A96E"/>
<stop offset="1" stop-color="#090D12"/>
</linearGradient>
<linearGradient id="paint1_linear_5043_1581" x1="181" y1="40.5356" x2="250" y2="40.5356" gradientUnits="userSpaceOnUse">
<stop offset="0.360577" stop-color="#C9A96E"/>
<stop offset="1" stop-color="#090D12"/>
</linearGradient>
</defs>
</svg>
