<svg xmlns="http://www.w3.org/2000/svg" fill="none" viewBox="0 0 149 147">
  <path fill="url(#a)" d="M70.649 111.9a9.692 9.692 0 0 0 3.29-6.33l.01-.069.018-.066-.004-.044.013-.168.005-.134.008-.034v-.171c.006-.113.006-.227.01-.333.002-.121 0-.229-.002-.337a6.984 6.984 0 0 0-.026-.478l-.006-.038-.004-.101-.005-.066a8.787 8.787 0 0 0-.09-.689l-.029-.18-.007-.03c-.033-.159-.065-.326-.107-.48l-.044-.177a9.822 9.822 0 0 0-.145-.505c-2.048-4.645-5.208-6.465-8.866-7.489-1.553-.434-3.195-.722-4.877-1.029-1.682-.306-3.407-.617-5.126-1.098-1.573-.44-3.14-1.022-4.666-1.856a26.739 26.739 0 0 1-6.943-7.872l13.988 4.657-15.108-6.82a24.91 24.91 0 0 1-.767-1.866 32.773 32.773 0 0 1-.546-3.46l12.238 6.125-12.385-8.045a33.964 33.964 0 0 1 .157-5.028c2.42 1.992 5.748 4.666 9.992 8.032l-9.695-9.806-.001-.258a31.08 31.08 0 0 1 1.386-5.241 301.843 301.843 0 0 0 8.364 9.406c-1.75-2.505-4.36-6.107-7.831-10.8a31.061 31.061 0 0 1 2.428-4.685l8.11 10.892-7.354-12.031a31.61 31.61 0 0 1 3.928-4.651 2558.42 2558.42 0 0 0 6.787 14.114L51.025 47.56a32.377 32.377 0 0 1 7.842-5.156c1.987 10.578 3.765 18.376 5.335 23.388-3.966 2.683-6.114 7.254-5.651 12.056.386 4.058 2.596 7.777 5.953 10.188-1.788-4.272-1.938-9.636 2.152-17.014-.632.102-1.584.47-2.844 1.119.23-.729 2.03-2.247 5.392-4.564-1.034.054-2.08.126-3.141.229 3.98-2.737 7.634-3.643 10.947-2.716 1.47.411 2.879 1.184 4.217 2.316.235.008.45.033.643.087 1.478.413 1.89 2.222 1.235 5.432-.446-.604-.949-.952-1.46-1.095-1.65-.461-3.408 1.218-3.931 3.244-.53 2.023.175 4.392 3.447 5.308.953.266 2.115.406 3.532.388 2.18.089 4.054-.616 5.61-2.11l-4.318 4.293.049.042.007.002-.002.007c.088.089.177.178.258.265l.01.017c.076.079.153.157.22.24l.014.004.02.035c.07.076.132.15.202.227l.01.017.035.039.159.187.062.075.146.183.055.073.026.043.087.124.028.037.048.07.026.043.092.133.07.105.025.043.054.08.026.043.068.112.099.163.052.086.019.04.045.085a12.961 12.961 0 0 0 2.583-7.121c.257-4.786-2.082-9.448-6.167-12.284 1.37-4.968 2.82-12.727 4.368-23.273a36.334 36.334 0 0 1 8.09 5.428l-5.13 15.002c2.632-5.835 4.712-10.49 6.249-13.967a35.08 35.08 0 0 1 4.148 4.79l-6.93 11.883 7.745-10.698a34.254 34.254 0 0 1 2.638 4.767c-3.325 4.635-5.81 8.182-7.48 10.644a277.035 277.035 0 0 0 8.092-9.215 33.426 33.426 0 0 1 1.45 4.499c.027.386.044.784.058 1.195l-9.295 9.436c4.19-3.271 7.459-5.857 9.808-7.764.221 1.426.352 2.885.382 4.365.008.23.007.466.008.695L96.389 81.62l12.167-5.732c-.051.808-.127 1.6-.231 2.386a23.155 23.155 0 0 1-1.038 2.974l-14.83 6.23 13.802-4.11a23.686 23.686 0 0 1-6.618 7.606c-3.77 1.967-7.871 2.277-11.634 2.852l-.047.101-.047.095-.037.09-.094.194-.005.02-.002.007-.009.033-.123.223-.003.013-.014.025-.125.23-.007.026-.142.239-.003.013-.14.232-.01.034-.018.016-.14.232-.004.013-.036.054c-.086.134-.17.26-.255.393l-.057.077-.005.02-.13.193-.035.047-.034.048-.13.192-.007.026-.022.03-.105.15-.058.083-.003.013-.007-.002-.138.19-.042.053-.033.04-.146.196-.007.026-.194.239-.02.023-.003.013-.084.098-.078.1-.043.052-.032.041-.076.093-.077.1-.02.023-.062.068-.078.1-.073.087-.086.104-.083.091-.051.058-.03.034-.167.189-.023.03-.061.068-.084.098-.083.091-.084.098-.082.091-.054.064-.204.221-.03.028-.06.062-.173.187c1.32-5.296-1.635-10.36-6.434-14.716l-.053-.051-.056-.044-.062-.046-.062-.046-.062-.046-.063-.046-.062-.046-.06-.053-.063-.046-.062-.046-.06-.053-.063-.046-.062-.046-.06-.052-.063-.046-.06-.053-.06-.053-.063-.046-.06-.052-.06-.053-.061-.052-.063-.047-.06-.052-.06-.053-.061-.052-.06-.053-.061-.053-.06-.052-.061-.053-.06-.053-.061-.052-.061-.053-.06-.053-.061-.052-.06-.053-.061-.053-.06-.052-.061-.053-.06-.053-.061-.052-.054-.051-.06-.053-.061-.052-.054-.051-.06-.053-.06-.052-.054-.051-.054-.05-.06-.053-.054-.051-.054-.051-.052-.057-.053-.051-.054-.05-.06-.053-.054-.051-.054-.05-.052-.058-.053-.051-.052-.058-.054-.05-.053-.05-.052-.058-.052-.058-.052-.057-.052-.057a8.881 8.881 0 0 1-1.494-3.948l-.01-.08.006-.02-.016-.14-.007-.06-.011-.103-.009-.11v-.057l-.004-.044-.004-.1.004-.014a6.034 6.034 0 0 1-.007-.295l.005-.02-.001-.079v-.086l.004-.02-.002-.136.003-.07.003-.1.01-.154.011-.161c.025-.215.05-.43.088-.633.02-.109.038-.21.066-.317l.039-.154.076-.3.004-.013.035-.14.005-.02c.026-.1.065-.197.097-.295l.006-.02.032-.098.008-.033.002-.007.051-.143.12-.295a8.341 8.341 0 0 1 .695-1.277l.003-.013c.067-.089.127-.179.194-.267l.002-.007.003-.013.002-.007.002-.007.001-.006.004-.014.001-.006.002-.007.003-.013.002-.007.002-.007.001-.007.021-.022.005-.02.002-.007.005-.02.003-.013.009-.005.003-.013.007.002.004-.014.04-.045.006-.02.024-.037a9.23 9.23 0 0 1 .257-.313l.132-.142.06-.062c.651-.696 1.39-1.218 2.167-1.48l-.007-.001-.167.017-.007-.002-.009.005-.024.008-.007-.002-.008.004-.078.014-.007-.001-.001.006-.007-.002-.002.007-.007-.002-.117.024-.007-.002-.008.005-.007-.002-.009.005-.007-.002-.008.005a4.29 4.29 0 0 0-1.21.483l-.016.002c-3.564 2.09-5.162 9.093-3.182 11.797l.005.009c.919 1.243 3.01 2.963 4.225 3.968.344.275.67.56.994.857l.042.04.041.04.042.04.041.04.007.003.035.038.041.04.15.142.017.019.041.04.042.04.013.004.028.037.042.04.034.038.042.04.041.04.042.04.041.04.042.04.014.005.02.034.042.04.2.206.04.04.018.02.022.027.042.04.041.04.033.046.042.04.028.036.007.002.04.047.04.04.018.02.017.018.042.04.04.047.007.002.033.045.041.04.035.039.007.002.033.044.041.04.075.086.033.045.013.004.028.036.04.047.034.038.04.047.033.045.023.028.01.017.04.047.033.045.145.183.04.047.021.034.014.004.031.052a21.165 21.165 0 0 1 2.609 4.245c1.237 3.418.735 6.027-.64 8.264l-.01.034a14.02 14.02 0 0 1-.812 1.158l-.033.041-.032.041-.033.041-.024.036-.034.047-.033.041-.032.041-.023.03-.003.013-.04.039-.025.043-.053.063-.005.02-.04.039-.033.041-.032.041-.005.02-.028.021-.032.041-.033.041-.033.041-.005.02-.027.021-.033.04-.032.041-.033.041-.003.014-.03.027-.032.041-.033.041-.032.041-.033.041-.032.04-.033.041-.033.041-.032.041-.033.041-.032.041-.025.036-.034.048-.032.04-.033.041-.022.03-.004.013-.04.039-.032.041-.032.041-.064.075-.032.041-.033.041-.005.02-.028.021-.032.041-.033.04-.03.035-.006.02-.027.021-.033.04-.033.041-.032.041-.004.013-.029.028-.032.041-.033.041-.03.034-.033.041-.033.041-.03.034-.034.041-.032.041-.033.041a33.133 33.133 0 0 1-7.287 6.054m1.61-37.704a4.596 4.596 0 0 0-.091.296l.09-.296Zm2.03-7.711c.222.84.638 1.414 1.242 1.712.602-.01 1.132-.119 1.593-.333a1.409 1.409 0 0 0-.454-.22 1.71 1.71 0 0 0-.874.006 5.285 5.285 0 0 1-1.514-1.167m.149 3.828s.01-.012.017-.01l-.017.01Zm-2.758 12.25-.007-.001-.017-.02-.021-.005-.016-.026-.01-.017.07.07Z"/>
  <path fill="#989898" d="M24.483 91.296c-.232-.571-.818-.85-1.362-.66-.56.2-.787.773-.556 1.344.236.58.82.872 1.38.672.544-.19.781-.774.538-1.356Zm-7.758-27.182 5.18 2.291-5.4 1.387-.061 1.082L21.61 71.3l-5.39 1.26-.07 1.18 6.746-1.717.066-1.13-5.213-2.416 5.447-1.373.068-1.138-6.463-2.993-.07 1.144-.007-.002Zm7.97-5.3-6.43-1.764-.27 1.06 6.437 1.765.271-1.066-.008.005Zm-.978-8.983c-.681 1.223-1.24 2.144-1.88 1.844-.674-.317-.411-1.521.02-2.435.452-.959 1.081-1.66 1.9-2.003l-.42-.96c-.933.41-1.81 1.3-2.383 2.567-.758 1.672-.704 3.315.499 3.873 1.242.576 2.298-.756 3.17-2.296.794-1.406 1.293-2.058 1.919-1.762.633.299.66 1.177.073 2.469-.535 1.17-1.286 1.946-2.383 2.395l.455.97c1.228-.527 2.186-1.537 2.813-2.896.902-1.975.575-3.444-.575-3.98-1.268-.59-2.223.492-3.191 2.234l-.017-.02Zm3.544-11.364-1.92 2.61 5.422 3.917 1.919-2.604c1.41-1.91 1.268-3.878-.403-5.088-1.672-1.21-3.61-.739-5.02 1.172l.002-.006Zm4.558 3.396-1.222 1.664-3.794-2.74 1.222-1.663c.993-1.35 2.335-1.83 3.589-.923 1.254.908 1.206 2.315.212 3.664l-.007-.002Zm8.966-7.676c1.911-1.557 2.22-3.526.781-5.185-1.44-1.66-3.489-1.705-5.4-.148-1.91 1.556-2.22 3.526-.78 5.185 1.438 1.659 3.488 1.704 5.399.148Zm-.662-.764c-1.36 1.104-2.816 1.132-3.878-.093-1.055-1.223-.774-2.615.579-3.721 1.35-1.1 2.813-1.126 3.868.097 1.055 1.224.783 2.61-.57 3.717Zm10.612-13.126-.97 4.625-4.475-2.073-1.09.509 3.056 5.844.973-.456-2.346-4.482 4.556 2.067.059-.026 1.03-4.68 2.345 4.482 1.006-.468-3.056-5.844-1.081.504-.007-.002Zm21.402-.113c.625-.018 1.056-.461 1.018-1.036-.042-.59-.528-1.004-1.153-.986-.632.015-1.075.448-1.034 1.045.038.575.537.993 1.17.977Zm28.533 2.146-3.59 4.057.043-5.506-1.044-.428-3.71 4.008.17-5.455-1.13-.46-.067 6.877 1.083.446 3.72-4.049-.067 5.542 1.097.45 4.604-5.021-1.104-.452-.005-.009Zm3.652 8.489 1.073-1.456 3.701 2.67.565-.77-3.701-2.67 1.015-1.372 4.4 3.173.565-.77-5.324-3.838-3.792 5.142 5.399 3.895.565-.77-4.474-3.23.008-.004Zm11.431 11.422.856.903 2.282-6.899-.868-.914-7.246 1.677.85.895 1.733-.422 2.942 3.1-.562 1.656.013.004Zm-1.331-5.012 3.331-.81-1.087 3.165-2.242-2.362-.002.007Zm5.825 9.589 4.776-2.682-.596-.967-5.63 3.164 3.15 5.122.853-.475-2.555-4.156.002-.006Zm11.314 10.49-2.679-6.568-.919.329 1.124 2.755-5.215 1.853.422 1.039 5.215-1.853 1.133 2.773.919-.328Zm2.621 10.884-2.702.4-.949-4.834 2.703-.4-.216-1.096-6.496.966.216 1.096 2.795-.417.942 4.832-2.794.41.216 1.095 6.496-.966-.216-1.095.005.009Zm-5.319 20.018c-.15.586.175 1.14.749 1.294.586.164 1.119-.158 1.268-.744.151-.593-.165-1.153-.751-1.317-.572-.16-1.114.167-1.258.762l-.008.005Zm-9.037 16.629 1.511 1.144-2.68 3.447.798.608 2.68-3.447 1.425 1.077-3.184 4.091.798.609 3.846-4.948-5.326-4.038-3.902 5.025.8.602 3.241-4.168-.007-.002Zm-7.162 15.327-3.305-3.817 7.035.777.911-.737-4.356-5.03-.82.669 3.437 3.967-7.326-.794-.754.61 4.356 5.031.829-.675-.007-.001Zm-8.849 5.36 2.936-1.462-3.198-5.777-2.936 1.462c-2.15 1.076-2.915 2.86-1.93 4.649.987 1.782 2.971 2.202 5.119 1.133l.009-.005Zm-2.64-4.95 1.87-.933 2.236 4.045-1.871.933c-1.523.758-2.961.606-3.698-.736-.737-1.341-.06-2.55 1.463-3.309Zm-12.097 9.905-.891-3.261c-.386-1.414.226-2.456 1.763-2.804 1.528-.344 2.607.322 2.993 1.737l.89 3.261 1.097-.243-.91-3.331c-.508-1.862-2.08-2.887-4.328-2.382-2.265.508-3.122 2.074-2.614 3.937l.91 3.331 1.097-.243-.007-.002Zm-14.743-5.439 2.241 2.397c-1.144.201-1.903.888-1.856 2.008.059 1.337 1.22 2.055 2.757 2.056l4.493-.006-.276-6.458-1.131.004.098 2.341-2.787.005-2.15-2.344-1.398.002.009-.005Zm6.381 3.285.091 2.195-3.296.006c-.945-.001-1.601-.299-1.633-1.1-.033-.801.596-1.096 1.544-1.102l3.296-.006-.002.007Zm-16.637-4.935-1.223-.242 2.474 7.024 1.23.244 4.59-5.632-1.21-.239-1.087 1.366-4.194-.824-.588-1.692.008-.005Zm4.122 3.338-2.086 2.621-1.109-3.244 3.194.63.001-.007Zm-17.243-1.421 1.89-4.461 2.697 6.466 1.116.491 2.494-5.876-1.018-.442-1.971 4.637-2.823-6.729-.923-.408-2.494 5.876 1.023.451.009-.005Zm-6.108-10.218c1.435 1.037 1.896 2.387.949 3.671-.948 1.283-2.39 1.258-3.818.223-.886-.64-1.369-1.411-1.304-2.335l-1.172-.214c-.035 1.097.554 2.354 1.889 3.32 2.072 1.493 4.11 1.379 5.353-.308 1.244-1.693.728-3.643-1.3-5.11-1.372-.991-2.76-1.172-3.817-.79l.558 1.027c.886-.345 1.78-.109 2.667.525l-.005-.009Zm-6.915-5.661-1.35 1.214-3.135-3.297-.71.643 3.134 3.297-1.275 1.149-3.723-3.918-.71.643 4.502 4.744 4.765-4.291-4.574-4.814-.71.644 3.793 3.988-.007-.002Z"/>
  <defs>
    <linearGradient id="a" x1="56.474" x2="101.983" y1="75.67" y2="56.056" gradientUnits="userSpaceOnUse">
      <stop stop-color="#8B6737"/>
      <stop offset=".33" stop-color="#DEB36B"/>
      <stop offset=".69" stop-color="#FFFCE8"/>
      <stop offset="1" stop-color="#8B6737"/>
    </linearGradient>
  </defs>
</svg>
