<svg width="705" height="731" viewBox="0 0 705 731" fill="none" xmlns="http://www.w3.org/2000/svg">
<g opacity="0.5">
<path d="M312.388 729.519C331.991 711.496 343.747 687.315 346.343 661.96L346.447 661.238L346.622 660.534L346.584 660.077L346.719 658.318L346.766 656.91L346.853 656.558L346.846 654.764C346.912 653.586 346.906 652.39 346.955 651.282C346.967 650.015 346.944 648.89 346.922 647.764C346.896 646.041 346.782 644.37 346.65 642.771L346.595 642.384L346.555 641.329L346.498 640.643C346.274 638.199 345.96 635.809 345.558 633.471L345.265 631.608L345.192 631.292C344.846 629.64 344.518 627.918 344.084 626.32L343.63 624.493C343.159 622.736 342.688 620.979 342.129 619.275C320.935 571.581 288.277 553.888 250.474 544.73C234.425 540.841 217.457 538.523 200.079 536.03C182.701 533.537 164.877 531.011 147.116 526.708C130.854 522.768 114.656 517.35 98.8915 509.275C68.9408 487.384 44.8447 460.192 27.112 429.913L171.655 472.696L15.525 407.767C12.629 401.465 9.96501 395.145 7.58501 388.595C5.05701 376.858 3.205 364.836 1.922 352.653L128.403 411.519L0.391014 332.645C0.254014 329.849 0.188002 327.071 0.122002 324.292C-0.174998 309.362 0.472014 294.585 1.97501 280.017C27.001 299.818 61.3895 326.368 105.267 359.771C105.267 359.771 71.8303 326.956 5.02801 261.343L5.01601 258.652C8.22701 239.644 13.062 221.103 19.307 203.278C48.5781 236.726 77.3962 268.348 105.778 298.072C87.6752 272.63 60.6879 236.076 24.799 188.481C31.776 171.056 40.234 154.365 49.8542 138.477L133.723 248.917L57.6556 126.255C69.6174 108.247 83.1699 91.4449 98.2068 75.9735C115.609 112.147 138.943 160.359 168.422 220.663L109.203 65.1977C133.204 42.5647 160.461 23.2593 190.194 7.98801C210.789 117.734 229.208 198.505 245.468 250.23C204.505 279.953 182.348 328.643 187.164 378.642C191.181 420.905 214.042 458.848 248.739 482.635C230.233 438.729 228.65 382.719 270.856 303.868C264.325 305.198 254.493 309.461 241.487 316.763C243.857 309.05 262.434 292.42 297.162 266.786C286.479 267.782 275.672 268.971 264.706 270.496C305.809 240.209 343.559 229.195 377.796 237.49C392.988 241.17 407.539 248.653 421.376 259.92C423.798 259.909 426.025 260.075 428.023 260.559C443.287 264.257 447.555 282.987 440.811 316.819C436.206 310.701 431.008 307.276 425.729 305.998C408.682 301.868 390.523 320.167 385.131 341.559C379.668 362.933 386.972 387.402 420.781 395.592C430.625 397.977 442.635 398.946 457.273 398.161C479.806 398.17 499.15 390.014 515.217 373.747L470.642 420.44L471.143 420.86L471.214 420.877L471.196 420.948C472.109 421.841 473.021 422.734 473.862 423.609L473.97 423.785C474.757 424.573 475.544 425.361 476.243 426.202L476.385 426.237L476.601 426.588C477.317 427.358 477.961 428.112 478.677 428.883L478.785 429.058L479.143 429.443L480.79 431.336L481.434 432.089L482.939 433.947L483.512 434.683L483.781 435.122L484.678 436.384L484.964 436.752L485.466 437.471L485.735 437.91L486.685 439.26L487.403 440.33L487.672 440.768L488.227 441.575L488.496 442.013L489.196 443.154L490.219 444.82L490.757 445.697L490.955 446.118L491.422 446.978C507.126 425.172 516.629 399.102 518.057 371.448C520.685 321.312 496.481 273.561 454.266 245.637C468.373 193.131 483.313 111.407 499.229 0.502014C529.661 14.3707 557.778 32.3824 582.846 53.8368L529.95 212.827C557.107 150.714 578.566 101.183 594.416 64.1812C610.192 78.9044 624.549 95.0759 637.309 112.503L565.783 239.652L645.734 124.549C656.116 139.982 665.237 156.229 673.025 173.273C638.706 223.123 613.046 261.257 595.813 287.695C623.267 256.342 651.104 223.14 679.36 187.948C685.393 202.925 690.467 218.415 694.367 234.368C694.652 238.394 694.831 242.544 694.974 246.835C631.026 315.191 599.007 349.396 599.007 349.396C642.276 313.437 676.03 285.028 700.287 264.1C702.579 278.917 703.947 294.106 704.265 309.565C704.346 311.974 704.339 314.436 704.35 316.828L578.114 402.126L703.78 337.074C703.266 345.535 702.483 353.858 701.415 362.111C698.541 372.764 695.007 383.331 690.706 393.639L537.53 465.018L680.101 416.232C663.69 447.274 640.729 475.46 611.778 498.537C572.849 520.689 530.476 525.655 491.607 533.262L491.113 534.337L490.637 535.341L490.249 536.293L489.278 538.372L489.226 538.584L489.208 538.654L489.121 539.006L487.849 541.386L487.814 541.527L487.672 541.791L486.383 544.241L486.313 544.523L484.846 547.08L484.811 547.22L483.361 549.707L483.274 550.059L483.078 550.235L481.629 552.721L481.594 552.862L481.222 553.444C480.338 554.873 479.471 556.231 478.587 557.659L478.003 558.488L477.95 558.699L476.606 560.763L476.252 561.275L475.898 561.786L474.553 563.85L474.483 564.131L474.253 564.449L473.173 566.054L472.572 566.954L472.537 567.094L472.465 567.077L471.049 569.123L470.606 569.688L470.27 570.129L468.765 572.229L468.695 572.51L466.694 575.087L466.481 575.334L466.446 575.475L465.578 576.534L464.781 577.61L464.338 578.175L464.002 578.616L463.222 579.622L462.426 580.698L462.213 580.945L461.575 581.687L460.778 582.763L460.016 583.698L459.131 584.828L458.28 585.816L457.748 586.434L457.429 586.805L455.711 588.852L455.48 589.17L454.843 589.911L453.974 590.97L453.124 591.959L452.256 593.018L451.405 594.006L450.856 594.695L448.747 597.096L448.445 597.396L447.825 598.067L446.035 600.097C459.628 544.181 429.065 492.499 379.46 448.973L378.906 448.465L378.334 448.028L377.69 447.573L377.047 447.119L376.404 446.664L375.761 446.21L375.117 445.755L374.492 445.23L373.848 444.776L373.205 444.321L372.579 443.796L371.936 443.342L371.293 442.887L370.667 442.362L370.024 441.908L369.398 441.383L368.772 440.858L368.129 440.404L367.503 439.879L366.878 439.354L366.252 438.829L365.608 438.374L364.983 437.849L364.357 437.324L363.731 436.8L363.105 436.275L362.48 435.75L361.854 435.225L361.228 434.7L360.602 434.175L359.977 433.65L359.351 433.125L358.725 432.6L358.099 432.075L357.474 431.55L356.848 431.025L356.222 430.5L355.596 429.975L354.97 429.45L354.345 428.926L353.79 428.418L353.165 427.893L352.539 427.368L351.984 426.86L351.359 426.335L350.733 425.811L350.178 425.303L349.624 424.795L348.998 424.27L348.444 423.763L347.889 423.255L347.352 422.677L346.798 422.169L346.244 421.662L345.618 421.137L345.063 420.629L344.509 420.121L343.972 419.543L343.417 419.036L342.881 418.458L342.326 417.95L341.772 417.442L341.235 416.864L340.698 416.286L340.161 415.708L339.624 415.13C331.001 402.662 325.845 388.72 324.161 374.499L324.068 373.655L324.121 373.444L323.954 371.985L323.88 371.37L323.769 370.297L323.674 369.154L323.672 368.556L323.634 368.099L323.594 367.044L323.629 366.903C323.589 365.848 323.548 364.793 323.562 363.826L323.614 363.615L323.593 362.788L323.589 361.891L323.641 361.68L323.617 360.255L323.65 359.516L323.681 358.479L323.78 356.86L323.898 355.171C324.155 352.919 324.412 350.667 324.795 348.519C325.003 347.375 325.194 346.302 325.474 345.175L325.877 343.555C326.14 342.499 326.402 341.442 326.665 340.386L326.7 340.245L327.067 338.766L327.12 338.555C327.382 337.498 327.787 336.477 328.121 335.438L328.174 335.226L328.508 334.187L328.595 333.835L328.613 333.765L329.14 332.25C329.563 331.158 329.968 330.136 330.373 329.114C331.29 326.947 332.26 324.867 333.285 322.875C334.044 321.342 334.875 319.826 335.776 318.327C336.324 317.34 336.943 316.37 337.545 315.47L337.58 315.329C338.27 314.377 338.89 313.407 339.58 312.454L339.598 312.384L339.633 312.243L339.65 312.172L339.668 312.102L339.685 312.031L339.72 311.891L339.738 311.82L339.755 311.75L339.79 311.609L339.808 311.538L339.825 311.468L339.843 311.398L340.055 311.15L340.108 310.939L340.125 310.869L340.178 310.658L340.213 310.517L340.302 310.463L340.337 310.323L340.408 310.34L340.443 310.199L340.868 309.705L340.921 309.494L341.169 309.106C342.072 307.906 342.957 306.776 343.825 305.717L345.19 304.181L345.811 303.51C352.528 295.954 360.162 290.187 368.182 287.128L368.111 287.111L366.384 287.364L366.313 287.347L366.224 287.4L365.975 287.489L365.904 287.472L365.815 287.525L365.014 287.704L364.943 287.687L364.925 287.757L364.854 287.74L364.837 287.811L364.765 287.793L363.555 288.097L363.484 288.08L363.395 288.133L363.324 288.116L363.235 288.169L363.164 288.152L363.075 288.205C358.698 289.385 354.521 291.285 350.577 293.764L350.417 293.8C313.612 317.139 297.141 391.024 317.622 418.461L317.676 418.548C327.172 431.153 348.784 448.261 361.35 458.249C364.907 460.977 368.286 463.812 371.63 466.787L372.059 467.19L372.489 467.593L372.918 467.995L373.347 468.398L373.418 468.415L373.776 468.801L374.206 469.203L375.744 470.621L375.923 470.814L376.352 471.217L376.781 471.619L376.924 471.654L377.211 472.022L377.64 472.425L377.998 472.81L378.427 473.213L378.856 473.616L379.286 474.018L379.715 474.421L380.144 474.823L380.287 474.858L380.502 475.209L380.931 475.612L382.989 477.678L383.418 478.081L383.597 478.273L383.83 478.554L384.259 478.956L384.689 479.359L385.029 479.815L385.458 480.218L385.745 480.586L385.816 480.603L386.228 481.076L386.658 481.479L386.836 481.671L387.015 481.864L387.445 482.267L387.857 482.74L387.928 482.757L388.268 483.213L388.698 483.616L389.056 484.001L389.127 484.018L389.467 484.474L389.897 484.877L390.666 485.735L391.007 486.191L391.149 486.226L391.436 486.594L391.848 487.067L392.206 487.452L392.618 487.925L392.958 488.381L393.191 488.661L393.299 488.837L393.71 489.31L394.051 489.766L395.555 491.624L395.967 492.097L396.182 492.448L396.325 492.482L396.648 493.008C407.341 506.276 416.436 520.799 423.629 536.281C436.432 571.489 431.263 598.983 417.065 622.945L416.978 623.297C414.414 627.529 411.653 631.639 408.589 635.75L408.253 636.191L407.916 636.632L407.58 637.074L407.332 637.462L406.978 637.973L406.642 638.414L406.305 638.855L406.075 639.173L406.04 639.314L405.632 639.738L405.367 640.196L404.818 640.884L404.765 641.096L404.358 641.52L404.021 641.961L403.685 642.402L403.632 642.613L403.348 642.843L403.012 643.284L402.675 643.725L402.339 644.166L402.286 644.378L402.002 644.608L401.666 645.049L401.329 645.49L400.993 645.931L400.958 646.072L400.656 646.372L400.32 646.813L399.983 647.254L399.647 647.696L399.31 648.137L398.974 648.578L398.637 649.019L398.301 649.46L397.964 649.901L397.628 650.342L397.291 650.783L397.044 651.171L396.69 651.683L396.353 652.124L396.017 652.565L395.787 652.883L395.752 653.024L395.344 653.448L395.007 653.889L394.671 654.33L394.015 655.142L393.679 655.583L393.342 656.024L393.29 656.235L393.006 656.465L392.669 656.906L392.333 657.347L392.014 657.718L391.961 657.929L391.677 658.159L391.341 658.6L391.004 659.041L390.668 659.483L390.633 659.623L390.331 659.924L389.995 660.365L389.658 660.806L389.339 661.177L389.003 661.618L388.666 662.059L388.347 662.43L388.011 662.871L387.674 663.312L387.338 663.753C365.523 689.156 340.238 711.478 312.087 730.118M328.459 335.295C328.125 336.334 327.774 337.444 327.529 338.43L328.459 335.295ZM349.385 253.828C351.686 262.524 355.987 268.344 362.234 271.202C368.449 270.841 373.929 269.48 378.692 267.05C377.209 266.019 375.639 265.34 373.998 264.943C371.216 264.269 368.225 264.44 364.969 265.368C358.9 262.405 353.717 258.61 349.314 253.81M350.88 293.763C350.88 293.763 350.986 293.639 351.058 293.656L350.88 293.763ZM322.469 422.995L322.398 422.978L322.219 422.785L322.005 422.733L321.844 422.47L321.736 422.295L322.469 422.995Z" fill="#0F151C"/>
</g>
</svg>
