<svg width="197" height="111" viewBox="0 0 197 111" fill="none" xmlns="http://www.w3.org/2000/svg">
<path d="M13.2883 82.5821L13.0818 82.6532C12.017 81.4308 10.1002 80.8681 7.55744 80.8681C4.21441 80.8681 3.04629 81.9353 3.04629 82.9508C3.04629 86.2688 13.9918 83.313 13.9918 88.8624C13.9918 92.5232 9.3064 92.9501 6.75718 92.9501C3.96272 92.9501 2.31702 92.5038 0.755216 91.87L0.200195 89.7162L0.406714 89.645C1.29733 91.1068 4.07888 91.8764 6.75073 91.8764C9.42257 91.8764 11.7911 91.2749 11.7911 89.4186C11.7911 85.8419 0.845568 88.8883 0.845568 83.5393C0.845568 80.0661 5.38899 79.7944 7.18958 79.7944C9.72589 79.7944 11.6685 80.2407 12.9011 80.8099L13.2754 82.5821H13.2883Z" fill="white"/>
<path d="M34.8953 92.5161C34.3984 92.5161 33.8692 92.5485 33.3658 92.5873C33.4368 91.4683 33.5723 89.8384 33.5917 86.7921H22.943C22.943 89.832 23.0786 91.4683 23.1818 92.5873C22.6849 92.555 22.1363 92.5161 21.6394 92.5161C21.1425 92.5161 20.6133 92.5485 20.1099 92.5873C20.1938 91.4037 20.3357 89.6832 20.3357 86.3134C20.3357 82.1546 20.2131 81.3655 20.1099 80.1948C20.6068 80.2272 21.136 80.266 21.6394 80.266C22.1428 80.266 22.6849 80.2336 23.1818 80.1948C23.0592 81.2944 22.956 82.0834 22.943 85.5955H33.5917C33.5723 82.0899 33.4691 81.3008 33.3658 80.1948C33.8628 80.2272 34.392 80.266 34.8953 80.266C35.3987 80.266 35.9409 80.2336 36.4378 80.1948C36.3152 81.3655 36.2119 82.1546 36.2119 86.3134C36.2119 89.6832 36.3345 91.4037 36.4378 92.5873C35.9409 92.555 35.3923 92.5161 34.8953 92.5161Z" fill="white"/>
<path d="M56.0507 80.4149L56.3928 81.9801L56.2056 82.0512C55.8636 81.5015 54.7794 81.3786 53.8371 81.3786H46.0668C46.0475 82.7692 45.9636 84.1986 45.9636 85.5892H50.7974C51.5719 85.5892 53.4886 85.5374 54.1275 85.3822C54.0953 85.712 54.0953 85.932 54.0953 86.1907C54.0953 86.4494 54.0953 86.6758 54.1275 86.9992C53.4951 86.8116 51.5719 86.7728 50.7974 86.7728H45.9636C45.9636 88.3186 46.0475 89.8515 46.0668 91.3973H53.2176C54.9472 91.3973 55.8959 91.2744 56.8058 90.2978L56.9736 90.4013L56.0637 92.2899C55.9281 92.5615 55.8765 92.5809 55.5474 92.5809C51.5848 92.5809 49.6487 92.5098 48.0159 92.5098C46.4928 92.5098 44.5825 92.5421 43.04 92.5809C43.1239 91.3973 43.2788 89.6769 43.2788 86.3071C43.2788 82.1482 43.1433 81.3592 43.04 80.1885C44.6018 80.2208 46.5573 80.2596 48.1191 80.2596C49.6809 80.2596 51.5525 80.1885 55.7668 80.1885C55.941 80.1885 56.0056 80.2402 56.0443 80.4149H56.0507Z" fill="white"/>
<path d="M65.9575 92.5161C64.9443 92.5161 63.7246 92.5485 62.7178 92.5873C62.8017 91.4037 62.9437 89.6832 62.9437 86.3134C62.9437 82.1546 62.821 81.3655 62.7178 80.1948C63.731 80.2272 64.9443 80.266 65.9575 80.266C67.1063 80.266 67.9969 80.1948 70.6042 80.1948C74.1344 80.1948 76.3351 81.0551 76.3351 83.3382C76.3351 84.6447 75.6833 85.4726 73.9343 85.8154C76.1673 85.9901 77.4839 86.9667 77.4839 88.9459C77.4839 91.9858 74.3603 92.5873 71.2044 92.5873C68.7197 92.5873 66.9837 92.5161 65.9575 92.5161ZM65.5639 81.3979L65.5316 85.4015H70.6107C72.6307 85.4015 73.5278 84.7676 73.5278 83.3382C73.5278 81.9994 72.6501 81.3979 70.6107 81.3979H65.5703H65.5639ZM65.5316 86.501L65.5639 91.4037H71.2044C73.076 91.4037 74.5474 90.8216 74.5474 88.9459C74.5474 86.8826 72.7985 86.5075 70.6042 86.5075H65.5251L65.5316 86.501Z" fill="white"/>
<path d="M85.5254 89.664C84.9445 90.6988 84.3766 91.6949 83.9313 92.5875C83.7054 92.5551 83.2988 92.5163 82.8858 92.5163C82.4728 92.5163 82.0597 92.5487 81.8403 92.5875C83.9313 89.7675 86.7129 85.6086 88.649 82.5299C86.9194 79.8457 85.3576 78.4551 83.2472 78.4551C82.5115 78.4551 81.7048 78.6298 80.7948 78.9726L80.7432 78.785C82.5438 78.1123 83.9829 77.7695 85.2027 77.7695C88.3069 77.7695 89.972 79.9686 92.4373 84.5091L94.7671 88.3575C97.3744 93.1502 99.3492 95.6985 102.247 95.6985C103.002 95.6985 103.809 95.5304 104.719 95.1811L104.79 95.3687C102.989 96.0413 101.511 96.3841 100.279 96.3841C97.1227 96.3841 95.3544 94.185 92.8891 89.664H85.5318H85.5254ZM89.2814 83.5648C88.3392 85.0265 87.255 86.7793 86.2288 88.4998H92.1792L90.5464 85.8027C90.1011 84.9942 89.6751 84.2568 89.275 83.5712L89.2814 83.5648Z" fill="white"/>
<path d="M115.619 86.2106C115.619 89.6644 118.497 91.967 122.789 91.967C124.279 91.967 125.77 91.7406 126.835 91.2814C126.816 88.3579 126.712 87.6529 126.609 86.6892C127.074 86.7215 127.571 86.7733 128.035 86.7733C128.5 86.7733 128.997 86.7215 129.475 86.6892C129.352 87.7047 129.255 88.3903 129.255 91.8441C128.584 92.0317 127.868 92.258 127.093 92.4262C125.757 92.7367 124.299 92.9954 122.756 92.9954C117.167 92.9954 112.566 90.7122 112.566 86.2235C112.566 82.097 116.541 79.7944 122.705 79.7944C124.796 79.7944 126.803 80.0661 128.552 80.7581C128.771 80.8293 128.978 80.9457 129.029 81.1527L129.288 83.2871L129.1 83.3388C128.119 81.8965 125.893 80.8293 122.705 80.8293C118.761 80.8293 115.619 82.6015 115.619 86.2106Z" fill="white"/>
<path d="M145.744 79.8009C151.011 79.8009 155.386 82.1552 155.386 86.2106C155.386 90.2659 151.391 92.9825 145.402 92.9825C140.188 92.9825 135.78 90.6087 135.78 86.534C135.78 82.4592 139.775 79.7944 145.744 79.7944V79.8009ZM138.916 86.3658C138.916 89.8714 141.678 91.967 145.602 91.967C149.275 91.967 152.243 90.1107 152.243 86.4305C152.243 82.7503 149.449 80.8099 145.538 80.8099C141.885 80.8099 138.916 82.6662 138.916 86.3593V86.3658Z" fill="white"/>
<path d="M164.428 92.5161C163.57 92.5161 162.557 92.5485 161.698 92.5873C161.782 91.4037 161.924 89.6832 161.924 86.3134C161.924 82.1546 161.802 81.3655 161.698 80.1948C162.195 80.2272 162.724 80.266 163.221 80.266C163.718 80.266 164.267 80.2336 164.764 80.1948C164.641 81.3655 164.525 82.1546 164.525 86.3134C164.525 88.7518 164.596 90.3041 164.641 91.4037H171.934C172.999 91.4037 173.528 91.3519 174.47 90.3365L174.677 90.4206L173.651 92.3803C173.567 92.555 173.476 92.5873 173.237 92.5873C164.731 92.5873 164.835 92.5161 164.422 92.5161H164.428Z" fill="white"/>
<path d="M180.066 86.3128C180.066 82.154 179.962 81.4813 179.911 80.2136C180.924 80.233 182.415 80.2848 183.447 80.2848C184.68 80.2848 185.745 80.2007 188.217 80.2007C194.186 80.2007 197 82.9172 197 86.3516C197 89.7861 194.186 92.5932 188.217 92.5932C185.577 92.5932 184.615 92.522 183.551 92.522C182.486 92.522 180.963 92.5544 179.917 92.5932C179.988 91.319 180.072 89.6891 180.072 86.3193L180.066 86.3128ZM194.083 86.3452C194.083 83.5252 192.366 81.4102 188.217 81.4102C186.59 81.4102 184.338 81.4425 182.712 81.5137C182.679 82.5938 182.66 83.5446 182.66 86.3064C182.66 88.6607 182.692 90.0513 182.744 91.2543C184.357 91.306 186.584 91.3578 188.217 91.3578C192.366 91.3578 194.083 89.2105 194.083 86.3387V86.3452Z" fill="white"/>
<path d="M59.8393 108.163L61.0784 108.686C60.3427 109.657 58.9164 110.355 56.9416 110.355C54.018 110.355 52.1787 109.01 52.1787 106.817C52.1787 104.625 54.018 103.279 56.9932 103.279C58.9099 103.279 60.3362 103.984 61.0655 104.942L59.8199 105.478C59.2391 104.657 58.2452 104.295 56.9738 104.295C54.9086 104.295 53.5404 105.155 53.5404 106.824C53.5404 108.492 54.9151 109.353 56.9738 109.353C58.2452 109.353 59.2455 109.003 59.8393 108.169V108.163Z" fill="white"/>
<path d="M74.644 108.543H69.6359L68.642 110.154H67.1899L71.4171 103.473H72.8886L77.1029 110.154H75.6443L74.6375 108.543H74.644ZM74.0502 107.567L72.1464 104.475L70.2426 107.567H74.0567H74.0502Z" fill="white"/>
<path d="M92.6112 105.659C92.6112 107.062 91.3527 107.845 89.4553 107.845H85.5185V110.154H84.1826V103.473H89.4553C91.3527 103.473 92.6112 104.262 92.6112 105.659ZM91.2365 105.672C91.2365 104.812 90.4879 104.482 89.3391 104.482H85.5121V106.868H89.3391C90.4879 106.868 91.2365 106.526 91.2365 105.678V105.672Z" fill="white"/>
<path d="M99.9941 110.154V103.473H101.33V110.154H99.9941Z" fill="white"/>
<path d="M116.948 104.475H113.392V110.154H112.056V104.475H108.52V103.473H116.948V104.475Z" fill="white"/>
<path d="M129.255 108.543H124.247L123.253 110.154H121.801L126.028 103.473H127.5L131.714 110.154H130.256L129.255 108.543ZM128.662 107.567L126.758 104.475L124.854 107.567H128.668H128.662Z" fill="white"/>
<path d="M145.88 109.139V110.154H138.794V103.473H140.13V109.139H145.88Z" fill="white"/>
<path d="M111.121 41.498C112.605 39.4994 113.528 37.0933 113.709 34.5256C114.051 29.8687 111.921 25.3865 108.114 22.7023C109.508 17.8449 111.037 10.2775 112.715 0C115.477 1.34532 118.02 3.07225 120.272 5.12257L115.116 19.8047C117.723 14.0871 119.788 9.52073 121.311 6.11215C122.725 7.51568 124.009 9.04857 125.145 10.6849L118.343 22.366L125.894 11.8168C126.81 13.2721 127.617 14.805 128.301 16.3961C125.061 20.9624 122.634 24.4615 121.002 26.887C123.577 24.0282 126.197 20.9948 128.849 17.7738C129.379 19.1773 129.805 20.6261 130.134 22.1137C130.147 22.4888 130.159 22.8769 130.166 23.2779C124.177 29.5065 121.176 32.624 121.176 32.624C125.209 29.3707 128.359 26.79 130.624 24.8884C130.805 26.2726 130.902 27.689 130.902 29.1184C130.902 29.3448 130.902 29.5712 130.895 29.7911L119.162 37.4814L130.805 31.6797C130.747 32.4623 130.656 33.2385 130.54 34.0017C130.256 34.9913 129.908 35.9615 129.501 36.9122L115.329 43.2508L128.481 38.9949C126.913 41.8472 124.758 44.4214 122.06 46.517C118.446 48.5027 114.561 48.8778 110.985 49.5117L110.94 49.6087L110.895 49.7057L110.856 49.7898L110.76 49.9838L110.747 50.0032L110.727 50.042L110.611 50.262V50.2749L110.592 50.3008L110.469 50.5271L110.456 50.553L110.321 50.7859V50.7988L110.179 51.0316L110.159 51.0575L110.146 51.0769L110.011 51.3033L109.998 51.3162L109.966 51.368C109.882 51.4973 109.804 51.6267 109.721 51.756L109.662 51.8336L109.65 51.8531L109.52 52.0471L109.488 52.0924L109.456 52.1376L109.327 52.3252L109.314 52.3446L109.295 52.377L109.191 52.5192L109.133 52.6033V52.6163H109.12L108.985 52.8038L108.946 52.862L108.914 52.9008L108.772 53.0949L108.752 53.1143L108.578 53.3471L108.559 53.3665H108.552L108.481 53.47L108.404 53.567L108.359 53.6188L108.327 53.6641L108.249 53.7546L108.172 53.8516L108.152 53.8775L108.094 53.9487L108.017 54.0457L107.946 54.1362L107.868 54.2397L107.791 54.3303L107.746 54.3885L107.713 54.4273L107.552 54.6148L107.526 54.6407L107.468 54.7054L107.384 54.7959L107.307 54.8865L107.223 54.9835L107.139 55.0805L107.087 55.1387L106.894 55.3587L106.868 55.391L106.81 55.4557L106.642 55.6432C107.997 50.4689 105.3 45.6115 100.847 41.4656L100.795 41.4203L100.737 41.3815L100.679 41.3363L100.621 41.291L100.563 41.2457L100.505 41.2004L100.447 41.1552L100.388 41.1099L100.33 41.0646L100.272 41.0193L100.214 40.9741L100.156 40.9288L100.098 40.8835L100.04 40.8382L99.9818 40.793L99.9238 40.7477L99.8657 40.7024L99.8076 40.6571L99.756 40.6119L99.6979 40.5666L99.6398 40.5213L99.5817 40.476L99.5236 40.4308L99.4655 40.3855L99.4139 40.3402L99.3623 40.2949L99.3042 40.2497L99.2526 40.2044L99.1945 40.1591L99.1429 40.1074L99.0912 40.0621L99.0332 40.0168L98.9815 39.9715L98.9299 39.9198L98.8783 39.8745L98.8266 39.8293L98.775 39.7775L98.7234 39.7322L98.6717 39.6805L98.6201 39.6287L98.5685 39.5835L98.5169 39.5317L98.4652 39.4865L98.4136 39.4347L98.362 39.383L98.3103 39.3312L98.2587 39.2795L98.2071 39.2342L98.1554 39.1825L98.1038 39.1307L98.0522 39.079L98.0006 39.0272L97.9489 38.9755L97.8973 38.9237L97.8457 38.872L97.794 38.8203L97.7424 38.7685L97.6908 38.7168L97.6391 38.665L97.5875 38.6133L97.5359 38.5615L97.4843 38.5098L97.4326 38.4581L97.381 38.4063L97.3294 38.3546L97.2777 38.3028C96.5097 37.1257 96.0709 35.8192 95.9418 34.4932V34.4092H95.9354V34.3962L95.9225 34.2604V34.2022V34.1052L95.916 34.0017V33.9499V33.9047V33.8076V33.7947C95.916 33.6977 95.916 33.6007 95.916 33.5037V33.4066V33.3226V33.1738H95.9225V33.1091L95.9354 33.0186L95.9483 32.8633L95.9676 32.7081C95.9934 32.4947 96.0257 32.2942 96.0644 32.0872C96.0838 31.9772 96.1032 31.8802 96.129 31.7767L96.1677 31.628C96.1935 31.531 96.2193 31.4339 96.2451 31.3369V31.324L96.2903 31.1882V31.1688C96.329 31.0717 96.3613 30.9747 96.3936 30.8777V30.8583L96.4323 30.7613L96.4452 30.7289L96.4968 30.5802C96.5356 30.4767 96.5743 30.3861 96.613 30.2891C96.6969 30.0951 96.7873 29.901 96.8905 29.7135C96.968 29.5712 97.0454 29.4354 97.1293 29.2995C97.1809 29.209 97.239 29.1249 97.2906 29.0343V29.0214C97.3552 28.9309 97.4197 28.8468 97.4778 28.7562V28.7498V28.7368V28.7304V28.7239V28.7174V28.711L97.4972 28.6851L97.5036 28.6721V28.6657V28.6527L97.5101 28.6398V28.6269L97.5488 28.5751V28.5557L97.5746 28.5169C97.6585 28.407 97.7424 28.3035 97.8198 28.2065C97.865 28.1612 97.9038 28.1094 97.9489 28.0642C97.9683 28.0448 97.9877 28.0254 98.007 27.9995C98.6395 27.3139 99.3494 26.79 100.092 26.5183H100.072C100.021 26.5183 99.9625 26.5313 99.9109 26.5377H99.9044H99.8979H99.8915H99.8721H99.8463H99.8399L99.7624 26.5507H99.756H99.7495H99.7431H99.7366H99.7302L99.6204 26.5765H99.614H99.6075H99.6011H99.5946H99.5753C95.3868 27.6373 93.128 35.7286 95.1545 38.6003L95.1609 38.6133C96.0064 39.8034 97.9489 41.4333 99.0848 42.3905C99.401 42.6557 99.7108 42.9209 100.008 43.2055L100.046 43.2443L100.085 43.2831L100.124 43.3219L100.163 43.3607H100.169L100.201 43.3995L100.24 43.4383L100.376 43.5742L100.395 43.5936L100.434 43.6324L100.472 43.6712H100.479L100.511 43.71L100.55 43.7488L100.582 43.7876L100.621 43.8264L100.659 43.8652L100.698 43.904L100.737 43.9428L100.776 43.9816L100.789 43.9946L100.814 44.0204L100.853 44.0592L101.04 44.2598L101.079 44.2986L101.092 44.3115L101.111 44.3374L101.15 44.3762L101.189 44.415L101.221 44.4538L101.26 44.4926L101.286 44.5249H101.292L101.331 44.5702L101.363 44.609L101.382 44.6284L101.402 44.6478L101.44 44.6866L101.473 44.7254L101.505 44.7707L101.537 44.8095L101.569 44.8483L101.602 44.8936L101.634 44.9324L101.705 45.0165L101.737 45.0553H101.744L101.77 45.0941L101.802 45.1394L101.834 45.1782L101.866 45.2235L101.899 45.2623L101.918 45.2881L101.931 45.3011L101.963 45.3464L101.995 45.3852L102.131 45.5598L102.163 45.5986L102.189 45.6309L102.202 45.6439L102.234 45.6827C103.183 46.9375 103.99 48.3087 104.622 49.7575C105.726 53.0561 105.196 55.6044 103.848 57.8035L103.835 57.8358C103.589 58.2239 103.325 58.6055 103.041 58.9742L103.009 59.013L102.983 59.0583L102.951 59.0971L102.925 59.1359L102.892 59.1812L102.86 59.22L102.828 59.2588L102.809 59.2911H102.802L102.77 59.3364L102.744 59.3817L102.692 59.4464L102.68 59.4658L102.647 59.5046L102.615 59.5434L102.583 59.5822L102.57 59.6016L102.55 59.621L102.518 59.6663L102.486 59.7051L102.454 59.7439L102.441 59.7568L102.421 59.7827L102.389 59.828L102.357 59.8668L102.325 59.9056V59.9185L102.292 59.9508L102.26 59.9961L102.228 60.0349L102.195 60.0737L102.17 60.1125L102.137 60.1514L102.105 60.1902L102.073 60.229L102.041 60.2742L102.008 60.313L101.976 60.3519L101.95 60.3842L101.918 60.4295L101.886 60.4683L101.853 60.5071L101.828 60.533V60.5459L101.789 60.5847L101.757 60.6235L101.724 60.6623L101.66 60.7399L101.628 60.7787L101.595 60.8175L101.582 60.8369L101.563 60.8564L101.531 60.8952L101.498 60.934L101.466 60.9728V60.9857L101.434 61.0116L101.402 61.0504L101.369 61.0892L101.337 61.128V61.1409L101.305 61.1733L101.273 61.2121L101.24 61.2509L101.208 61.2897L101.176 61.3285L101.144 61.3673L101.111 61.4061L101.079 61.4449L101.047 61.4837L101.014 61.5225C98.9686 63.838 96.6066 65.8625 93.9928 67.5441C95.8257 65.9078 96.9486 63.6828 97.239 61.3285L97.2455 61.2638V61.1992L97.2584 61.1603L97.2713 60.9986L97.2842 60.8693V60.8305L97.2971 60.6688C97.2971 60.5524 97.31 60.4489 97.31 60.3389C97.31 60.2225 97.31 60.1125 97.31 60.0091C97.31 59.8474 97.31 59.6986 97.2971 59.5434V59.5046V59.414L97.2842 59.3493C97.2648 59.123 97.239 58.8966 97.2132 58.6767L97.1874 58.502V58.4762C97.1551 58.3209 97.1293 58.1657 97.097 58.0105L97.0583 57.8358C97.0196 57.6741 96.9744 57.506 96.9292 57.3443C92.786 47.332 83.1118 51.1739 74.864 46.6464C72.1663 44.5508 70.0108 41.9831 68.4425 39.1243L81.5952 43.3801L67.4228 37.0416C67.1711 36.453 66.9388 35.858 66.7323 35.2435C66.5257 34.144 66.3773 33.025 66.287 31.8867L77.7617 37.6043L66.1902 30.0239C66.1902 29.7652 66.1772 29.5065 66.1772 29.2413C66.1772 27.8507 66.2676 26.4731 66.4354 25.1277C68.6877 27.0164 71.7855 29.5582 75.7352 32.7404C75.7352 32.7404 72.7407 29.6229 66.7452 23.3944V23.1421C67.0808 21.3764 67.5583 19.6688 68.165 18.0195C70.7787 21.1823 73.3602 24.177 75.903 26.997C74.2896 24.5974 71.8952 21.15 68.7071 16.6483C69.3847 15.0443 70.185 13.5049 71.1014 12.0432L78.5684 22.4694L71.8436 10.9113C72.973 9.26202 74.2509 7.72266 75.6578 6.31913C77.1744 9.71477 79.2267 14.2423 81.8017 19.9017L76.6839 5.32954C78.9234 3.27275 81.4597 1.53289 84.2154 0.168165C85.8869 10.4068 87.4164 17.9549 88.804 22.7993C84.9963 25.4835 82.873 29.9657 83.2086 34.6226C83.4926 38.5615 85.5126 42.1318 88.6491 44.4085C87.0357 40.2885 87.0099 35.0818 91.0305 27.8313C90.4303 27.9413 89.5268 28.3164 88.3135 28.9761C88.5459 28.2647 90.2819 26.7512 93.5088 24.4421C92.5278 24.5133 91.5339 24.6038 90.5336 24.7203C96.058 20.7684 100.847 20.542 104.906 24.0411C106.791 24.0476 107.346 25.8263 106.571 29.3707C103.099 24.5004 95.9096 37.4038 107.92 36.964C109.985 37.0093 111.773 36.2913 113.277 34.8037L109.101 39.0596L109.146 39.0984V39.1048V39.1113C109.23 39.2019 109.307 39.2795 109.385 39.37L109.398 39.383C109.469 39.4606 109.533 39.5317 109.604 39.6093L109.617 39.6223L109.643 39.6481C109.708 39.7193 109.766 39.7904 109.824 39.8681L109.837 39.881L109.869 39.9198L110.011 40.1009L110.069 40.1785L110.198 40.3531L110.25 40.4243L110.276 40.4631L110.359 40.5795L110.385 40.6183L110.43 40.6895L110.456 40.7348L110.54 40.8641L110.605 40.9676L110.63 41.0064L110.676 41.084L110.701 41.1228L110.766 41.2328L110.856 41.388L110.902 41.4721L110.921 41.5109L110.96 41.5885L111.121 41.498ZM96.271 31.0976L96.3678 30.8065C96.3355 30.9036 96.3032 31.0006 96.271 31.0976ZM98.5233 26.9711H98.5104V26.984L98.5298 26.9711H98.5233ZM99.5817 24.9014C100.15 24.882 100.653 24.7655 101.098 24.5456C100.743 24.2934 100.33 24.2352 99.8463 24.3645C99.2913 24.0799 98.8266 23.7113 98.4394 23.265C98.633 24.0799 99.0138 24.6297 99.5817 24.9014ZM95.6449 38.9431L95.5804 38.872V38.8914L95.6062 38.9043L95.6191 38.9173L95.6385 38.9302H95.6449V38.9431Z" fill="url(#paint0_linear_4256_291)"/>
<defs>
<linearGradient id="paint0_linear_4256_291" x1="76.6565" y1="33.6663" x2="130.863" y2="13.1295" gradientUnits="userSpaceOnUse">
<stop stop-color="#8B6737"/>
<stop offset="0.446468" stop-color="#DEB36B"/>
<stop offset="0.721635" stop-color="#FFFCE8"/>
<stop offset="1" stop-color="#8B6737"/>
</linearGradient>
</defs>
</svg>
