<svg width="141" height="143" viewBox="0 0 141 143" fill="none" xmlns="http://www.w3.org/2000/svg">
<path d="M62.9352 112.357C64.844 110.654 66.0161 108.339 66.3159 105.892L66.3273 105.823L66.3455 105.755L66.3428 105.711L66.3593 105.541L66.3667 105.405L66.3757 105.371L66.3787 105.198C66.3874 105.084 66.3893 104.968 66.3962 104.861C66.4 104.738 66.4001 104.63 66.4003 104.521C66.4014 104.354 66.3939 104.192 66.3846 104.037L66.3801 104L66.3784 103.898L66.3744 103.831C66.358 103.594 66.333 103.363 66.2994 103.136L66.2752 102.955L66.2689 102.924C66.2393 102.764 66.2114 102.597 66.1732 102.441L66.1337 102.263C66.0923 102.093 66.0509 101.922 66.001 101.756C64.0749 97.1005 60.9928 95.3233 57.4018 94.3611C55.8774 93.9527 54.2619 93.6941 52.6076 93.4178C50.9533 93.1416 49.2565 92.8612 47.5694 92.4092C46.0246 91.9952 44.4891 91.4385 43.0003 90.6257C40.1852 88.4481 37.9401 85.7696 36.3089 82.8054L50.0232 87.2354L35.2478 80.6403C34.9843 80.025 34.7428 79.4084 34.529 78.7701C34.3116 77.6299 34.1594 76.4635 34.0619 75.2827L46.0185 81.2315L33.9566 73.3447C33.9493 73.074 33.9487 72.8052 33.9481 72.5363C33.9503 71.0918 34.0424 69.6641 34.2158 68.2582C36.5648 70.2238 39.7941 72.861 43.9154 76.1801C43.9154 76.1801 40.7898 72.939 34.5455 66.4584L34.5499 66.1982C34.8955 64.3664 35.3951 62.5831 36.0279 60.8719C38.7544 64.1659 41.4414 67.2823 44.0906 70.2143C42.4141 67.7172 39.9121 64.1275 36.5826 59.4519C37.2845 57.781 38.1264 56.1838 39.0776 54.6668L46.8597 65.5171L39.8475 53.5006C41.0266 51.7832 42.3551 50.1857 43.8227 48.7199C45.4103 52.2534 47.5396 56.9632 50.2309 62.8548L44.8947 47.7001C47.2329 45.5598 49.8751 43.7479 52.7456 42.3312C54.4873 52.9863 56.0806 60.8349 57.5272 65.8701C53.5549 68.6618 51.3394 73.3257 51.6969 78.1708C51.9938 82.2661 54.099 85.9819 57.3634 88.3525C55.6863 84.0689 55.6499 78.649 59.8416 71.1088C59.2152 71.2241 58.2677 71.6166 57.0107 72.2964C57.2529 71.5553 59.0608 69.9846 62.4294 67.5758C61.4073 67.6505 60.3729 67.7437 59.3227 67.8689C63.3095 65.023 66.9367 64.0342 70.1889 64.9057C71.6321 65.2923 73.0061 66.0454 74.3043 67.163C74.5356 67.1669 74.748 67.1875 74.9377 67.2383C76.3876 67.6268 76.7568 69.4468 76.0435 72.7051C75.6164 72.1041 75.127 71.7624 74.6256 71.628C73.0063 71.1941 71.2348 72.9271 70.6761 74.985C70.1107 77.0411 70.758 79.4221 73.9696 80.2827C74.9046 80.5332 76.0494 80.6511 77.4488 80.6049C79.6004 80.6513 81.4642 79.9017 83.0317 78.361L78.6797 82.7865L78.7267 82.8282L78.7334 82.83L78.7316 82.8367C78.8169 82.925 78.9022 83.0132 78.9807 83.0996L78.9906 83.1167C79.0642 83.1945 79.1377 83.2724 79.2027 83.3551L79.2163 83.3587L79.2361 83.3931C79.3029 83.4691 79.3629 83.5433 79.4297 83.6193L79.4396 83.6364L79.473 83.6744L79.6264 83.8608L79.6864 83.935L79.8262 84.1177L79.8795 84.19L79.9043 84.233L79.9873 84.3569L80.0139 84.3931L80.0603 84.4636L80.0851 84.5066L80.1731 84.639L80.2394 84.744L80.2642 84.7869L80.3156 84.866L80.3404 84.909L80.4049 85.0207L80.4991 85.1839L80.5487 85.2698L80.5667 85.311L80.6096 85.3951C82.1537 83.318 83.1146 80.8159 83.3076 78.1444C83.6613 73.3011 81.4479 68.6342 77.4742 65.8483C78.9288 60.799 80.5228 52.9258 82.2698 42.2323C85.1472 43.6351 87.7951 45.4339 90.1448 47.5595L84.7682 62.8284C87.4886 56.8764 89.6392 52.1297 91.2285 48.5833C92.7047 50.0391 94.0425 51.6321 95.2252 53.3432L88.1348 65.4951L96.005 54.5253C96.9647 56.0387 97.8023 57.6284 98.5111 59.2925C95.1319 64.044 92.6036 67.6801 90.9039 70.2021C93.5896 67.2254 96.3157 64.0708 99.0859 60.7246C99.6313 62.1851 100.084 63.6935 100.424 65.2441C100.443 65.6341 100.451 66.0358 100.456 66.451C94.2099 72.9324 91.0825 76.1756 91.0825 76.1756C95.2878 72.7855 98.5691 70.1064 100.928 68.1315C101.117 69.5691 101.216 71.0408 101.215 72.5364C101.218 72.7696 101.212 73.0077 101.208 73.239L88.9795 81.2328L101.112 75.1958C101.046 76.0131 100.954 76.8164 100.835 77.6124C100.539 78.6368 100.18 79.6516 99.7479 80.6398L84.9753 87.2329L98.689 82.8032C97.0583 85.7721 94.8081 88.4516 91.9964 90.6247C88.2338 92.6883 84.1776 93.0829 80.4505 93.7399L80.4011 93.8428L80.3535 93.939L80.3146 94.0303L80.2176 94.2294L80.2122 94.2497L80.2104 94.2565L80.2013 94.2904L80.075 94.518L80.0713 94.5315L80.0573 94.5568L79.9291 94.7911L79.9219 94.8182L79.7765 95.0625L79.7729 95.0761L79.6294 95.3136L79.6203 95.3474L79.6013 95.3641L79.4578 95.6016L79.4542 95.6152L79.4175 95.6707C79.3301 95.8071 79.2446 95.9366 79.1572 96.073L79.0997 96.152L79.0943 96.1723L78.9617 96.3692L78.9268 96.4179L78.892 96.4667L78.7593 96.6635L78.7521 96.6906L78.7295 96.7209L78.6231 96.8739L78.5638 96.9597L78.5602 96.9732L78.5534 96.9714L78.414 97.1665L78.3706 97.2202L78.3375 97.2622L78.1895 97.4621L78.1823 97.4892L77.9859 97.7344L77.9651 97.7578L77.9614 97.7714L77.8764 97.872L77.7981 97.9745L77.7546 98.0282L77.7216 98.0702L77.6451 98.1659L77.5668 98.2684L77.546 98.2919L77.4836 98.3623L77.4053 98.4647L77.3306 98.5537L77.2437 98.6611L77.1605 98.755L77.1085 98.8137L77.0772 98.8489L76.9089 99.0434L76.8863 99.0737L76.8239 99.1441L76.7388 99.2447L76.6555 99.3386L76.5705 99.4393L76.4872 99.5331L76.4334 99.5986L76.2271 99.8265L76.1977 99.855L76.137 99.9186L75.9619 100.111C77.3745 94.7312 74.562 89.6713 69.9146 85.3615L69.8627 85.3112L69.8089 85.2678L69.7484 85.2225L69.688 85.1773L69.6275 85.132L69.567 85.0868L69.5065 85.0415L69.4478 84.9895L69.3873 84.9442L69.3268 84.899L69.2681 84.8469L69.2076 84.8017L69.1472 84.7564L69.0885 84.7044L69.028 84.6591L68.9693 84.6071L68.9106 84.5551L68.8501 84.5098L68.7915 84.4578L68.7328 84.4058L68.6741 84.3537L68.6136 84.3085L68.5549 84.2564L68.4963 84.2044L68.4376 84.1524L68.3789 84.1003L68.3202 84.0483L68.2616 83.9963L68.2029 83.9442L68.1442 83.8922L68.0855 83.8402L68.0268 83.7882L67.9682 83.7361L67.9095 83.6841L67.8508 83.6321L67.7921 83.58L67.7335 83.528L67.6748 83.476L67.6161 83.4239L67.5574 83.3719L67.5055 83.3217L67.4469 83.2697L67.3882 83.2176L67.3363 83.1674L67.2776 83.1154L67.2189 83.0633L67.167 83.0131L67.1151 82.9629L67.0564 82.9109L67.0045 82.8607L66.9526 82.8104L66.9026 82.7535L66.8507 82.7032L66.7988 82.653L66.7401 82.601L66.6882 82.5508L66.6363 82.5006L66.5862 82.4436L66.5343 82.3933L66.4842 82.3364L66.4323 82.2861L66.3804 82.2359L66.3303 82.1789L66.2802 82.1219L66.2301 82.065L66.1801 82.008C65.3822 80.7848 64.9184 79.426 64.7868 78.0473L64.7797 77.9655L64.7851 77.9451L64.7722 77.8037L64.7664 77.7441L64.7579 77.6401L64.7513 77.5294L64.7522 77.4716L64.7496 77.4273L64.7479 77.3252L64.7515 77.3116C64.7499 77.2095 64.7482 77.1074 64.7514 77.0139L64.7569 76.9935L64.7565 76.9136L64.758 76.8268L64.7634 76.8065L64.7641 76.6687L64.7687 76.5973L64.7737 76.497L64.7866 76.3407L64.8012 76.1776C64.8304 75.9603 64.8596 75.743 64.9005 75.5361C64.9228 75.4259 64.9432 75.3224 64.9723 75.214L65.014 75.0582C65.0413 74.9565 65.0685 74.8549 65.0957 74.7533L65.0994 74.7397L65.1375 74.5974L65.1429 74.5771C65.1702 74.4755 65.211 74.3775 65.245 74.2777L65.2504 74.2573L65.2844 74.1575L65.2935 74.1237L65.2953 74.1169L65.3488 73.9714C65.3914 73.8667 65.4322 73.7687 65.473 73.6707C65.5649 73.4629 65.6619 73.2638 65.7638 73.0732C65.8394 72.9265 65.9218 72.7815 66.011 72.6384C66.0653 72.544 66.1264 72.4515 66.1857 72.3657L66.1893 72.3522C66.2572 72.2614 66.3183 72.1689 66.3862 72.0781L66.388 72.0714L66.3917 72.0578L66.3935 72.051L66.3953 72.0442L66.3971 72.0375L66.4008 72.0239L66.4026 72.0171L66.4044 72.0104L66.408 71.9968L66.4098 71.99L66.4116 71.9833L66.4135 71.9765L66.4343 71.953L66.4397 71.9327L66.4415 71.9259L66.447 71.9056L66.4506 71.892L66.4592 71.8871L66.4628 71.8735L66.4696 71.8753L66.4732 71.8618L66.5149 71.8149L66.5203 71.7945L66.5448 71.7575C66.6335 71.6433 66.7203 71.5359 66.8054 71.4352L66.9389 71.2894L66.9995 71.2258C67.6564 70.5086 68.3972 69.9664 69.1693 69.6867L69.1625 69.6849L68.9971 69.7059L68.9903 69.7041L68.9817 69.7091L68.9578 69.7172L68.951 69.7154L68.9424 69.7203L68.8656 69.736L68.8588 69.7342L68.857 69.741L68.8502 69.7392L68.8484 69.746L68.8416 69.7442L68.7255 69.7711L68.7187 69.7693L68.7101 69.7743L68.7033 69.7724L68.6947 69.7774L68.6879 69.7756L68.6794 69.7806C68.259 69.8858 67.8562 70.0611 67.4746 70.2929L67.4592 70.296C63.897 72.4786 62.1729 79.5908 64.0723 82.2856L64.0773 82.2942C64.9583 83.5324 66.9868 85.2305 68.1663 86.2219C68.5003 86.493 68.8172 86.774 69.1304 87.0685L69.1705 87.1083L69.2107 87.1481L69.2509 87.1879L69.291 87.2277L69.2978 87.2295L69.3312 87.2675L69.3714 87.3073L69.5153 87.4476L69.532 87.4666L69.5722 87.5064L69.6124 87.5462L69.6259 87.5498L69.6525 87.586L69.6927 87.6258L69.7261 87.6638L69.7663 87.7036L69.8064 87.7434L69.8466 87.7832L69.8868 87.823L69.9269 87.8629L69.9405 87.8665L69.9603 87.9009L70.0005 87.9407L70.1927 88.1447L70.2329 88.1845L70.2496 88.2035L70.2712 88.2311L70.3114 88.2709L70.3516 88.3107L70.3831 88.3555L70.4233 88.3953L70.4499 88.4315L70.4567 88.4333L70.4951 88.4799L70.5352 88.5197L70.5519 88.5387L70.5686 88.5577L70.6088 88.5975L70.6471 88.6441L70.6539 88.6459L70.6855 88.6906L70.7256 88.7304L70.759 88.7684L70.7658 88.7703L70.7974 88.815L70.8376 88.8548L70.9093 88.9394L70.9409 88.9842L70.9544 88.9878L70.981 89.024L71.0194 89.0706L71.0528 89.1086L71.0911 89.1552L71.1227 89.1999L71.1444 89.2275L71.1543 89.2447L71.1926 89.2913L71.2242 89.3361L71.3641 89.5188L71.4024 89.5654L71.4222 89.5997L71.4358 89.6033L71.4656 89.6549C72.4594 90.9596 73.2981 92.3826 73.9533 93.8943C75.1036 97.3252 74.5537 99.9736 73.1489 102.262L73.1399 102.296C72.8863 102.7 72.6143 103.092 72.3134 103.484L72.2803 103.526L72.2473 103.568L72.2143 103.609L72.1898 103.647L72.155 103.695L72.1219 103.737L72.0889 103.779L72.0663 103.809L72.0626 103.823L72.0228 103.863L71.9966 103.907L71.9427 103.972L71.9373 103.993L71.8975 104.033L71.8644 104.075L71.8314 104.117L71.826 104.137L71.7984 104.159L71.7653 104.201L71.7323 104.243L71.6993 104.285L71.6938 104.305L71.6662 104.327L71.6332 104.369L71.6002 104.411L71.5671 104.453L71.5635 104.466L71.5341 104.495L71.5011 104.537L71.468 104.579L71.435 104.621L71.402 104.663L71.3689 104.705L71.3359 104.747L71.3029 104.789L71.2698 104.831L71.2368 104.873L71.2038 104.915L71.1793 104.952L71.1445 105L71.1114 105.042L71.0784 105.084L71.0558 105.115L71.0521 105.128L71.0123 105.168L70.9793 105.21L70.9462 105.252L70.882 105.329L70.849 105.371L70.8159 105.413L70.8105 105.434L70.7829 105.455L70.7499 105.497L70.7168 105.539L70.6856 105.575L70.6802 105.595L70.6526 105.617L70.6195 105.658L70.5865 105.7L70.5535 105.742L70.5498 105.756L70.5204 105.784L70.4874 105.826L70.4544 105.868L70.4231 105.904L70.3901 105.946L70.3571 105.988L70.3259 106.023L70.2928 106.065L70.2598 106.107L70.2267 106.149C68.0916 108.561 65.6316 110.669 62.9053 112.415M65.2775 74.2646C65.2435 74.3644 65.2077 74.471 65.1823 74.5659L65.2775 74.2646ZM67.4426 66.4282C67.6445 67.2739 68.0432 67.8455 68.6339 68.1344C69.2281 68.1121 69.7542 67.9917 70.214 67.7663C70.0745 67.6635 69.9259 67.5947 69.77 67.5529C69.5058 67.4821 69.2198 67.4926 68.907 67.5758C68.3335 67.2769 67.8464 66.8995 67.4358 66.4264M67.5035 70.2933C67.5035 70.2933 67.5139 70.2816 67.5207 70.2834L67.5035 70.2933ZM64.5259 82.7339L64.5191 82.7321L64.5024 82.7131L64.4821 82.7076L64.4672 82.6819L64.4573 82.6647L64.5259 82.7339Z" fill="url(#paint0_linear_4314_839)"/>
<path d="M20.6951 90.5047C20.4784 89.931 19.9045 89.661 19.3634 89.8646C18.8051 90.0781 18.569 90.6612 18.7856 91.2348C19.0072 91.817 19.5776 92.1006 20.1358 91.8871C20.6769 91.6835 20.9234 91.0887 20.6951 90.5047ZM13.5937 63.1563L18.6643 65.3718L13.2996 66.8827L13.2165 67.9787L18.273 70.3285L12.9206 71.7119L12.8257 72.9065L19.5287 71.0353L19.6177 69.89L14.5152 67.5497L19.9273 66.0515L20.0181 64.8995L13.6931 61.9992L13.6005 63.1581L13.5937 63.1563ZM21.5798 57.6348L15.2628 55.9785L14.9741 57.0558L21.2979 58.714L21.5884 57.6299L21.5798 57.6348ZM20.7999 48.5664C20.1017 49.8172 19.5294 50.7604 18.9031 50.4691C18.2447 50.1619 18.529 48.9383 18.9752 48.0048C19.4408 47.0258 20.0774 46.3032 20.8934 45.9409L20.4979 44.978C19.5684 45.4115 18.6835 46.3291 18.09 47.6224C17.3059 49.3294 17.3256 50.9904 18.5024 51.5309C19.7181 52.089 20.7892 50.7203 21.6835 49.1444C22.4972 47.7068 23.0036 47.0364 23.6164 47.324C24.236 47.6135 24.2448 48.5018 23.6373 49.8205C23.0847 51.0158 22.326 51.8147 21.2324 52.2914L21.6618 53.2634C22.8861 52.7055 23.8547 51.6652 24.5025 50.2774C25.4348 48.2615 25.1415 46.7814 24.0171 46.2622C22.7761 45.6901 21.8096 46.8036 20.8166 48.5854L20.7999 48.5664ZM24.5387 36.9979L22.5863 39.6772L27.8642 43.5314L29.8148 40.8589C31.2481 38.8973 31.1488 36.91 29.5218 35.7188C27.8948 34.5276 25.9703 35.0432 24.5369 37.0047L24.5387 36.9979ZM28.9727 40.3428L27.7308 42.0506L24.038 39.3546L25.2799 37.6467C26.2901 36.2617 27.6259 35.7482 28.8461 36.6416C30.0664 37.535 29.9897 38.9595 28.9795 40.3446L28.9727 40.3428ZM37.9933 32.3971C39.9142 30.7841 40.2608 28.7856 38.873 27.1356C37.4851 25.4856 35.4604 25.4805 33.5395 27.0935C31.6186 28.7065 31.2719 30.7051 32.6598 32.355C34.0477 34.005 36.0724 34.0101 37.9933 32.3971ZM37.3544 31.6377C35.9875 32.7819 34.5488 32.8394 33.5246 31.6209C32.5072 30.4043 32.8134 28.9904 34.1734 27.8443C35.5317 26.7051 36.9772 26.6494 37.9946 27.8661C39.0121 29.0827 38.7144 30.4917 37.3544 31.6377ZM48.1153 18.1456L47.0596 22.8443L42.6814 20.8361L41.5936 21.3725L44.4915 27.225L45.4626 26.7445L43.2377 22.256L47.6977 24.2571L47.756 24.2291L48.8705 19.4735L51.0954 23.962L52.0991 23.4685L49.2012 17.6159L48.122 18.1474L48.1153 18.1456ZM69.2688 17.6047C69.8869 17.5743 70.3217 17.1171 70.2957 16.5364C70.2666 15.9404 69.7954 15.531 69.1772 15.5614C68.5523 15.59 68.1058 16.0368 68.1331 16.6396C68.1591 17.2202 68.6438 17.6333 69.2688 17.6047ZM97.4219 19.2081L93.7904 23.3837L93.9471 17.8123L92.9246 17.4003L89.1748 21.5297L89.4566 16.0063L88.3479 15.564L88.1389 22.523L89.2002 22.9526L92.9609 18.7826L92.7798 24.391L93.8547 24.8243L98.5085 19.6518L97.4268 19.2167L97.4219 19.2081ZM100.855 27.724L101.945 26.2297L105.548 28.8578L106.122 28.0678L102.52 25.4397L103.551 24.0312L107.834 27.154L108.409 26.3639L103.227 22.5862L99.3725 27.8641L104.627 31.6975L105.202 30.9074L100.847 27.7289L100.855 27.724ZM111.915 39.0531L112.742 39.9501L115.14 32.9241L114.301 32.0167L107.105 33.8575L107.928 34.7459L109.649 34.2848L112.491 37.363L111.901 39.0495L111.915 39.0531ZM110.703 34.0082L114.012 33.1229L112.872 36.3468L110.705 34.0014L110.703 34.0082ZM116.261 43.5943L121.036 40.7855L120.467 39.8197L114.837 43.1331L117.845 48.2524L118.697 47.7546L116.259 43.6011L116.261 43.5943ZM127.224 53.9826L124.713 47.3913L123.798 47.7417L124.851 50.5073L119.659 52.4856L120.055 53.5285L125.247 51.5502L126.309 54.333L127.224 53.9826ZM129.588 64.9425L126.909 65.4011L126.072 60.5292L128.751 60.0707L128.561 58.9666L122.121 60.0731L122.311 61.1772L125.083 60.6998L125.913 65.5698L123.143 66.0404L123.334 67.1445L129.774 66.038L129.583 64.9339L129.588 64.9425ZM123.915 85.3024C123.755 85.8986 124.064 86.4534 124.628 86.5973C125.204 86.7516 125.737 86.4152 125.897 85.819C126.059 85.2159 125.758 84.6562 125.182 84.5019C124.62 84.3512 124.078 84.6926 123.924 85.2974L123.915 85.3024ZM114.638 102.308L116.108 103.435L113.387 106.976L114.163 107.576L116.884 104.035L118.27 105.096L115.038 109.299L115.814 109.899L119.718 104.816L114.539 100.836L110.578 105.998L111.355 106.591L114.645 102.309L114.638 102.308ZM107.242 117.958L104.055 114.162L110.991 114.808L111.907 114.044L107.707 109.041L106.882 109.735L110.197 113.68L102.973 113.023L102.215 113.655L106.416 118.658L107.249 117.959L107.242 117.958ZM98.3855 123.558L101.317 122.02L98.2772 116.238L95.3452 117.776C93.1976 118.907 92.4047 120.728 93.341 122.519C94.2791 124.302 96.2311 124.687 98.3769 123.563L98.3855 123.558ZM95.8792 118.602L97.7469 117.621L99.872 121.669L98.0043 122.65C96.4833 123.448 95.0647 123.322 94.3642 121.979C93.6636 120.637 94.3582 119.4 95.8792 118.602ZM83.7178 128.865L82.9053 125.583C82.5532 124.159 83.1803 123.093 84.7061 122.71C86.2234 122.333 87.2759 122.985 87.6279 124.408L88.4405 127.69L89.5288 127.423L88.6988 124.071C88.2352 122.196 86.7037 121.19 84.4705 121.747C82.2219 122.306 81.3426 123.908 81.8062 125.782L82.6362 129.134L83.7246 128.867L83.7178 128.865ZM69.2611 123.655L71.4262 126.036C70.2909 126.262 69.5269 126.972 69.5504 128.104C69.5804 129.456 70.7137 130.159 72.2319 130.13L76.6727 130.034L76.5341 123.505L75.4158 123.532L75.4644 125.898L72.7104 125.959L70.6329 123.631L69.2525 123.66L69.2611 123.655ZM75.4995 126.852L75.5438 129.071L72.2859 129.142C71.3515 129.161 70.7098 128.872 70.6945 128.062C70.6792 127.252 71.3072 126.941 72.2434 126.916L75.5013 126.845L75.4995 126.852ZM59.1602 122.19L57.9559 121.969L60.2549 129.027L61.4661 129.249L66.1184 123.459L64.9276 123.242L63.8252 124.646L59.6981 123.896L59.1516 122.195L59.1602 122.19ZM63.1645 125.485L61.0485 128.179L60.0195 124.919L63.1627 125.492L63.1645 125.485ZM46.1527 124.391L48.1128 119.84L50.6444 126.328L51.7373 126.802L54.324 120.807L53.3273 120.38L51.2825 125.112L48.6328 118.36L47.7292 117.965L45.1425 123.961L46.1441 124.396L46.1527 124.391ZM40.3285 114.174C41.7253 115.195 42.1534 116.551 41.1903 117.869C40.2272 119.187 38.803 119.19 37.413 118.171C36.5507 117.541 36.089 116.771 36.1728 115.835L35.019 115.642C34.9612 116.752 35.5168 118.012 36.8161 118.963C38.8331 120.433 40.8503 120.276 42.113 118.545C43.3776 116.807 42.9086 114.844 40.9354 113.4C39.5991 112.425 38.232 112.269 37.1787 112.677L37.7093 113.705C38.5918 113.339 39.4694 113.559 40.3335 114.183L40.3285 114.174ZM33.6132 108.584L32.253 109.839L29.2233 106.566L28.5077 107.231L31.5374 110.504L30.2532 111.692L26.6554 107.802L25.9398 108.467L30.2912 113.177L35.0892 108.74L30.6691 103.961L29.9535 104.626L33.62 108.586L33.6132 108.584Z" fill="#989898"/>
<defs>
<linearGradient id="paint0_linear_4314_839" x1="49.6911" y1="76.0118" x2="95.8765" y2="57.3612" gradientUnits="userSpaceOnUse">
<stop stop-color="#8B6737"/>
<stop offset="0.33" stop-color="#DEB36B"/>
<stop offset="0.69" stop-color="#FFFCE8"/>
<stop offset="1" stop-color="#8B6737"/>
</linearGradient>
</defs>
</svg>
