<svg width="84" height="82" viewBox="0 0 84 82" fill="none" xmlns="http://www.w3.org/2000/svg">
<path d="M39.4737 70.3117C40.8734 69.0249 41.7127 67.2984 41.8981 65.4881L41.9055 65.4366L41.918 65.3863L41.9153 65.3537L41.9249 65.228L41.9283 65.1276L41.9345 65.1024L41.934 64.9743C41.9387 64.8902 41.9383 64.8048 41.9418 64.7257C41.9426 64.6353 41.941 64.5549 41.9394 64.4745C41.9376 64.3515 41.9294 64.2322 41.92 64.118L41.9161 64.0904L41.9132 64.0151L41.9092 63.9661C41.8931 63.7916 41.8707 63.6209 41.842 63.4541L41.8211 63.321L41.8159 63.2985C41.7912 63.1805 41.7678 63.0576 41.7368 62.9434L41.7044 62.813C41.6708 62.6875 41.6371 62.5621 41.5972 62.4405C40.084 59.0352 37.7522 57.7719 35.0531 57.118C33.9073 56.8404 32.6958 56.6748 31.455 56.4968C30.2142 56.3188 28.9416 56.1385 27.6735 55.8313C26.5124 55.55 25.3559 55.1631 24.2303 54.5866C22.0919 53.0236 20.3715 51.0821 19.1054 48.9202L29.4256 51.9749L18.2781 47.339C18.0713 46.8891 17.8811 46.4379 17.7112 45.9702C17.5307 45.1322 17.3984 44.2738 17.3069 43.404L26.3374 47.607L17.1975 41.9754C17.1877 41.7758 17.183 41.5774 17.1784 41.3791C17.1571 40.313 17.2033 39.258 17.3107 38.2178C19.0974 39.6316 21.5527 41.5272 24.6856 43.9122C24.6856 43.9122 22.2982 41.5692 17.5286 36.8845L17.5278 36.6924C17.757 35.3352 18.1022 34.0115 18.5481 32.7388C20.638 35.1269 22.6956 37.3847 24.7221 39.5069C23.4295 37.6904 21.5027 35.0805 18.9402 31.6823C19.4384 30.4382 20.0423 29.2464 20.7291 28.1121L26.7173 35.9974L21.2862 27.2394C22.1402 25.9537 23.1078 24.754 24.1815 23.6494C25.424 26.2321 27.09 29.6744 29.1948 33.98L24.9666 22.88C26.6802 21.264 28.6263 19.8857 30.7492 18.7953C32.2197 26.631 33.5348 32.398 34.6957 36.0911C31.771 38.2133 30.189 41.6897 30.5329 45.2595C30.8197 48.2771 32.4519 50.9862 34.9293 52.6846C33.608 49.5497 33.495 45.5506 36.5084 39.9208C36.0421 40.0157 35.3401 40.3201 34.4115 40.8415C34.5807 40.2907 35.9071 39.1034 38.3866 37.2732C37.6239 37.3443 36.8523 37.4292 36.0693 37.5381C39.004 35.3756 41.6993 34.5892 44.1438 35.1814C45.2285 35.4442 46.2674 35.9785 47.2553 36.7829C47.4283 36.7822 47.5873 36.794 47.7299 36.8286C48.8197 37.0926 49.1245 38.4299 48.643 40.8455C48.3142 40.4087 47.943 40.1641 47.5662 40.0728C46.349 39.778 45.0525 41.0845 44.6675 42.6118C44.2774 44.138 44.799 45.885 47.2129 46.4698C47.9157 46.6401 48.7732 46.7092 49.8183 46.6532C51.4272 46.6538 52.8083 46.0715 53.9555 44.91L50.7729 48.2439L50.8086 48.2739L50.8137 48.2751L50.8125 48.2801C50.8776 48.3439 50.9427 48.4076 51.0028 48.4702L51.0105 48.4827C51.0667 48.539 51.1229 48.5952 51.1728 48.6553L51.1829 48.6578L51.1983 48.6828C51.2494 48.7378 51.2955 48.7916 51.3466 48.8467L51.3543 48.8592L51.3798 48.8867L51.4974 49.0218L51.5434 49.0756L51.6509 49.2083L51.6918 49.2608L51.711 49.2921L51.775 49.3823L51.7955 49.4086L51.8313 49.4599L51.8505 49.4912L51.9183 49.5876L51.9695 49.664L51.9888 49.6953L52.0284 49.7529L52.0477 49.7842L52.0976 49.8656L52.1706 49.9846L52.2091 50.0472L52.2232 50.0773L52.2565 50.1387C53.3777 48.5818 54.0563 46.7203 54.1582 44.7459C54.3459 41.1663 52.6177 37.7569 49.6036 35.7632C50.6109 32.0143 51.6776 26.1793 52.814 18.2608C54.9867 19.251 56.9942 20.537 58.7841 22.0689L55.0074 33.4206C56.9464 28.9858 58.4785 25.4493 59.6102 22.8074C60.7366 23.8587 61.7617 25.0133 62.6727 26.2576L57.5658 35.3359L63.2742 27.1177C64.0155 28.2195 64.6667 29.3795 65.2227 30.5964C62.7724 34.1557 60.9403 36.8784 59.7099 38.7661C61.6701 36.5275 63.6576 34.1569 65.675 31.6443C66.1058 32.7135 66.4681 33.8195 66.7465 34.9585C66.7669 35.246 66.7797 35.5423 66.7899 35.8487C62.2241 40.7293 59.938 43.1714 59.938 43.1714C63.0273 40.604 65.4373 38.5757 67.1693 37.0814C67.3329 38.1393 67.4305 39.2238 67.4532 40.3275C67.4591 40.4995 67.4586 40.6753 67.4593 40.8461L58.4462 46.9363L67.4187 42.2916C67.3819 42.8958 67.326 43.49 67.2498 44.0792C67.0446 44.8398 66.7923 45.5944 66.4852 46.3303L55.5486 51.4267L65.728 47.9434C64.5562 50.1598 62.9169 52.1722 60.8498 53.8199C58.0703 55.4015 55.045 55.7561 52.2697 56.2992L52.2345 56.376L52.2004 56.4477L52.1728 56.5156L52.1035 56.6641L52.0997 56.6792L52.0985 56.6842L52.0922 56.7093L52.0014 56.8793L51.9989 56.8893L51.9888 56.9082L51.8968 57.0831L51.8918 57.1032L51.787 57.2858L51.7845 57.2958L51.681 57.4733L51.6748 57.4985L51.6608 57.5111L51.5573 57.6886L51.5548 57.6987L51.5283 57.7402C51.4652 57.8422 51.4033 57.9392 51.3401 58.0411L51.2984 58.1003L51.2947 58.1154L51.1987 58.2628L51.1734 58.2993L51.1481 58.3358L51.0521 58.4831L51.0471 58.5033L51.0307 58.5259L50.9536 58.6405L50.9106 58.7048L50.9081 58.7148L50.903 58.7136L50.8019 58.8597L50.7703 58.9L50.7463 58.9315L50.6389 59.0814L50.6339 59.1015L50.491 59.2855L50.4758 59.3031L50.4733 59.3132L50.4113 59.3888L50.3544 59.4656L50.3228 59.5059L50.2988 59.5374L50.2431 59.6093L50.1862 59.6861L50.171 59.7037L50.1255 59.7567L50.0686 59.8335L50.0142 59.9003L49.951 59.9809L49.8902 60.0515L49.8523 60.0956L49.8295 60.1221L49.7068 60.2683L49.6904 60.291L49.6448 60.3439L49.5828 60.4195L49.5221 60.4901L49.4601 60.5657L49.3994 60.6363L49.3602 60.6854L49.2096 60.8569L49.188 60.8783L49.1437 60.9262L49.0159 61.0712C49.9865 57.0788 47.8043 53.3888 44.2626 50.2811L44.223 50.2448L44.1822 50.2136L44.1362 50.1812L44.0903 50.1487L44.0444 50.1163L43.9985 50.0838L43.9525 50.0514L43.9078 50.0139L43.8619 49.9814L43.816 49.949L43.7713 49.9115L43.7254 49.879L43.6795 49.8466L43.6348 49.8091L43.5889 49.7767L43.5442 49.7392L43.4995 49.7017L43.4536 49.6693L43.4089 49.6318L43.3642 49.5943L43.3195 49.5568L43.2736 49.5244L43.2289 49.4869L43.1842 49.4494L43.1396 49.4119L43.0949 49.3744L43.0502 49.337L43.0055 49.2995L42.9609 49.262L42.9162 49.2245L42.8715 49.187L42.8268 49.1496L42.7821 49.1121L42.7375 49.0746L42.6928 49.0371L42.6481 48.9996L42.6034 48.9622L42.5587 48.9247L42.5141 48.8872L42.4694 48.8497L42.4298 48.8135L42.3851 48.776L42.3404 48.7385L42.3009 48.7023L42.2562 48.6648L42.2115 48.6273L42.1719 48.5911L42.1323 48.5548L42.0876 48.5173L42.0481 48.4811L42.0085 48.4449L41.9701 48.4036L41.9306 48.3673L41.891 48.3311L41.8463 48.2936L41.8067 48.2574L41.7671 48.2211L41.7288 48.1798L41.6892 48.1436L41.6509 48.1023L41.6113 48.0661L41.5717 48.0298L41.5334 47.9886L41.495 47.9473L41.4567 47.906L41.4183 47.8647C40.8027 46.9746 40.4345 45.9791 40.3143 44.9637L40.3077 44.9035L40.3114 44.8884L40.2995 44.7842L40.2943 44.7403L40.2863 44.6637L40.2796 44.5821L40.2794 44.5395L40.2767 44.5068L40.2738 44.4315L40.2763 44.4214C40.2734 44.3461 40.2706 44.2708 40.2715 44.2017L40.2753 44.1866L40.2737 44.1276L40.2735 44.0636L40.2772 44.0485L40.2755 43.9468L40.2778 43.894L40.28 43.8199L40.2871 43.7044L40.2955 43.5838C40.3139 43.423 40.3322 43.2622 40.3595 43.1088C40.3744 43.0271 40.3881 42.9505 40.4081 42.87L40.4368 42.7544C40.4556 42.679 40.4743 42.6035 40.4931 42.5281L40.4956 42.5181L40.5218 42.4125L40.5256 42.3974C40.5443 42.3219 40.5732 42.249 40.5971 42.1748L40.6008 42.1597L40.6246 42.0855L40.6309 42.0604L40.6321 42.0554L40.6698 41.9472C40.7 41.8692 40.7289 41.7963 40.7579 41.7233C40.8233 41.5686 40.8926 41.4201 40.9657 41.2779C41.0199 41.1684 41.0792 41.0602 41.1436 40.9531C41.1827 40.8826 41.2269 40.8134 41.2699 40.7492L41.2724 40.7391C41.3217 40.6711 41.3659 40.6018 41.4152 40.5338L41.4165 40.5288L41.419 40.5187L41.4202 40.5137L41.4215 40.5087L41.4227 40.5036L41.4252 40.4936L41.4265 40.4886L41.4277 40.4835L41.4302 40.4735L41.4315 40.4684L41.4327 40.4634L41.434 40.4584L41.4491 40.4407L41.4529 40.4257L41.4541 40.4206L41.4579 40.4055L41.4604 40.3955L41.4667 40.3917L41.4692 40.3816L41.4743 40.3829L41.4768 40.3728L41.5072 40.3375L41.5109 40.3224L41.5286 40.2947C41.5931 40.2091 41.6563 40.1284 41.7183 40.0528L41.8158 39.9431L41.8601 39.8952C42.3397 39.3557 42.8848 38.944 43.4574 38.7256L43.4523 38.7243L43.329 38.7424L43.3239 38.7412L43.3176 38.745L43.2998 38.7513L43.2947 38.7501L43.2884 38.7539L43.2312 38.7667L43.2261 38.7655L43.2248 38.7705L43.2197 38.7693L43.2185 38.7743L43.2134 38.7731L43.127 38.7948L43.1219 38.7936L43.1156 38.7973L43.1105 38.7961L43.1041 38.7999L43.099 38.7987L43.0927 38.8025C42.7802 38.8867 42.4819 39.0223 42.2004 39.1994L42.1889 39.2019C39.5611 40.8683 38.3851 46.1436 39.8474 48.1026L39.8513 48.1088C40.5293 49.0088 42.0723 50.2302 42.9696 50.9434C43.2235 51.1382 43.4648 51.3406 43.7035 51.553L43.7342 51.5818L43.7648 51.6105L43.7955 51.6393L43.8261 51.668L43.8312 51.6693L43.8568 51.6968L43.8874 51.7255L43.9973 51.8268L44.01 51.8405L44.0407 51.8693L44.0713 51.898L44.0815 51.9005L44.102 51.9268L44.1326 51.9555L44.1582 51.983L44.1888 52.0118L44.2195 52.0405L44.2501 52.0693L44.2808 52.098L44.3114 52.1268L44.3216 52.1293L44.337 52.1543L44.3676 52.1831L44.5146 52.3306L44.5452 52.3593L44.558 52.3731L44.5746 52.3931L44.6053 52.4219L44.6359 52.4506L44.6602 52.4832L44.6909 52.5119L44.7113 52.5382L44.7164 52.5394L44.7458 52.5732L44.7765 52.602L44.7893 52.6157L44.802 52.6295L44.8327 52.6582L44.8621 52.692L44.8672 52.6932L44.8915 52.7258L44.9221 52.7545L44.9477 52.7821L44.9528 52.7833L44.9771 52.8158L45.0077 52.8446L45.0627 52.9059L45.087 52.9384L45.0972 52.9409L45.1177 52.9672L45.1471 53.0009L45.1726 53.0285L45.202 53.0622L45.2263 53.0948L45.243 53.1148L45.2506 53.1273L45.28 53.1611L45.3043 53.1937L45.4118 53.3263L45.4412 53.3601L45.4565 53.3851L45.4667 53.3876L45.4898 53.4252C46.2532 54.3725 46.9026 55.4094 47.4162 56.5148C48.3303 59.0285 47.9612 60.9916 46.9475 62.7025L46.9413 62.7276C46.7582 63.0298 46.5611 63.3232 46.3424 63.6168L46.3184 63.6483L46.2943 63.6797L46.2703 63.7112L46.2526 63.7389L46.2274 63.7755L46.2033 63.807L46.1793 63.8385L46.1629 63.8611L46.1604 63.8712L46.1313 63.9015L46.1123 63.9342L46.0731 63.9833L46.0694 63.9984L46.0402 64.0287L46.0162 64.0602L45.9922 64.0917L45.9884 64.1068L45.9682 64.1232L45.9441 64.1547L45.9201 64.1862L45.8961 64.2177L45.8923 64.2327L45.8721 64.2492L45.848 64.2807L45.824 64.3122L45.8 64.3436L45.7975 64.3537L45.776 64.3751L45.7519 64.4066L45.7279 64.4381L45.7039 64.4696L45.6799 64.5011L45.6558 64.5326L45.6318 64.5641L45.6078 64.5956L45.5838 64.6271L45.5597 64.6586L45.5357 64.6901L45.518 64.7178L45.4928 64.7543L45.4687 64.7858L45.4447 64.8173L45.4283 64.84L45.4258 64.8501L45.3967 64.8803L45.3726 64.9118L45.3486 64.9433L45.3018 65.0013L45.2778 65.0328L45.2538 65.0643L45.25 65.0794L45.2297 65.0958L45.2057 65.1273L45.1817 65.1588L45.1589 65.1852L45.1552 65.2003L45.1349 65.2167L45.1109 65.2482L45.0868 65.2797L45.0628 65.3112L45.0603 65.3213L45.0388 65.3427L45.0148 65.3742L44.9907 65.4057L44.968 65.4322L44.9439 65.4637L44.9199 65.4952L44.8971 65.5216L44.8731 65.5531L44.8491 65.5846L44.8251 65.6161C43.2675 67.4298 41.4622 69.0236 39.4523 70.3545M40.6212 42.1647C40.5973 42.2388 40.5723 42.3181 40.5548 42.3885L40.6212 42.1647ZM42.1153 36.348C42.2796 36.9688 42.5866 37.3844 43.0327 37.5884C43.4764 37.5627 43.8677 37.4655 44.2078 37.292C44.1019 37.2184 43.9897 37.1699 43.8726 37.1415C43.674 37.0934 43.4604 37.1057 43.2279 37.1719C42.7946 36.9603 42.4246 36.6894 42.1102 36.3467M42.222 39.1993C42.222 39.1993 42.2296 39.1904 42.2347 39.1917L42.222 39.1993ZM40.1935 48.4263L40.1884 48.4251L40.1757 48.4113L40.1604 48.4076L40.1488 48.3888L40.1412 48.3763L40.1935 48.4263Z" fill="url(#paint0_linear_4229_129)"/>
<path d="M38.5604 75.0914C38.6507 75.0973 38.7435 75.0718 38.8119 75.0137C38.8803 74.9557 38.9283 74.8713 38.9342 74.7821C38.9453 74.6942 38.9144 74.6014 38.8556 74.5338C38.7968 74.4663 38.7113 74.4189 38.621 74.413C38.5307 74.4072 38.438 74.4327 38.3695 74.4907C38.3011 74.5488 38.2532 74.6331 38.2472 74.7223C38.2412 74.8115 38.2671 74.903 38.3259 74.9706C38.3847 75.0382 38.4701 75.0855 38.5604 75.0914ZM7.5206 38.1974C7.60968 38.2083 7.70366 38.1777 7.77208 38.1197C7.8405 38.0616 7.88845 37.9773 7.89442 37.8881C7.90038 37.7989 7.87455 37.7074 7.81574 37.6398C7.75694 37.5722 7.67152 37.5249 7.5812 37.519C7.49087 37.5131 7.39814 37.5386 7.32972 37.5967C7.2613 37.6547 7.21335 37.7391 7.20738 37.8283C7.20142 37.9175 7.22726 38.009 7.28606 38.0766C7.34486 38.1441 7.43028 38.1915 7.5206 38.1974ZM44.892 7.5511C44.9823 7.55699 45.0751 7.53148 45.1435 7.47342C45.2119 7.41536 45.2599 7.33102 45.2658 7.24184C45.2769 7.15389 45.246 7.0611 45.1872 6.99354C45.1284 6.92599 45.0429 6.87864 44.9526 6.87275C44.8623 6.86686 44.7696 6.89237 44.7011 6.95043C44.6327 7.00849 44.5848 7.09283 44.5788 7.18201C44.5677 7.26996 44.5987 7.36275 44.6575 7.43031C44.7163 7.49786 44.8017 7.54521 44.892 7.5511ZM75.9318 44.4451C76.0209 44.456 76.1149 44.4255 76.1833 44.3674C76.2517 44.3094 76.2997 44.2251 76.3057 44.1359C76.3116 44.0467 76.2858 43.9551 76.227 43.8876C76.1682 43.82 76.0828 43.7727 75.9924 43.7668C75.9021 43.7609 75.8094 43.7864 75.741 43.8445C75.6725 43.9025 75.6246 43.9869 75.6186 44.076C75.6127 44.1652 75.6385 44.2568 75.6973 44.3243C75.7561 44.3919 75.8415 44.4392 75.9318 44.4451Z" fill="#091138"/>
<defs>
<linearGradient id="paint0_linear_4229_129" x1="28.9996" y1="43.6977" x2="63.0868" y2="28.8984" gradientUnits="userSpaceOnUse">
<stop stop-color="#8B6737"/>
<stop offset="0.33" stop-color="#DEB36B"/>
<stop offset="0.69" stop-color="#FFFCE8"/>
<stop offset="1" stop-color="#8B6737"/>
</linearGradient>
</defs>
</svg>
